<svg width="434" height="126" viewBox="0 0 434 126" fill="none" xmlns="http://www.w3.org/2000/svg">
<path d="M135.361 80.36C131.801 80.36 128.391 79.85 125.141 78.83C121.891 77.81 119.301 76.5 117.391 74.89L120.321 68.31C122.141 69.74 124.401 70.94 127.091 71.89C129.781 72.85 132.541 73.32 135.361 73.32C137.751 73.32 139.681 73.06 141.161 72.54C142.641 72.02 143.721 71.31 144.421 70.42C145.111 69.53 145.461 68.52 145.461 67.39C145.461 66 144.961 64.88 143.961 64.04C142.961 63.19 141.671 62.52 140.091 62.02C138.511 61.52 136.751 61.05 134.821 60.62C132.891 60.19 130.961 59.68 129.021 59.09C127.091 58.5 125.331 57.74 123.751 56.81C122.171 55.88 120.871 54.63 119.881 53.07C118.881 51.51 118.381 49.51 118.381 47.08C118.381 44.65 119.041 42.34 120.371 40.28C121.691 38.22 123.711 36.57 126.431 35.33C129.141 34.09 132.581 33.47 136.751 33.47C139.481 33.47 142.201 33.82 144.891 34.51C147.581 35.2 149.931 36.2 151.921 37.51L149.251 44.09C147.211 42.88 145.101 41.97 142.931 41.39C140.761 40.8 138.681 40.51 136.681 40.51C134.341 40.51 132.441 40.79 130.981 41.36C129.521 41.92 128.461 42.66 127.791 43.57C127.121 44.48 126.781 45.52 126.781 46.7C126.781 48.09 127.271 49.21 128.251 50.05C129.231 50.9 130.511 51.56 132.091 52.04C133.671 52.52 135.441 52.98 137.401 53.44C139.351 53.9 141.301 54.41 143.231 54.97C145.161 55.53 146.921 56.27 148.501 57.18C150.081 58.09 151.371 59.33 152.341 60.89C153.321 62.45 153.801 64.43 153.801 66.82C153.801 69.21 153.141 71.5 151.811 73.56C150.491 75.62 148.461 77.27 145.721 78.51C142.991 79.75 139.531 80.37 135.371 80.37L135.361 80.36Z" fill="white"/>
<path d="M192.01 80.36C188.45 80.36 185.17 79.77 182.18 78.6C179.18 77.43 176.58 75.79 174.37 73.68C172.16 71.58 170.44 69.1 169.23 66.26C168.01 63.42 167.41 60.3 167.41 56.92C167.41 53.54 168.02 50.42 169.23 47.58C170.44 44.74 172.16 42.26 174.37 40.16C176.58 38.05 179.19 36.42 182.18 35.24C185.18 34.07 188.43 33.48 191.95 33.48C195.47 33.48 198.78 34.07 201.75 35.24C204.72 36.41 207.32 38.05 209.53 40.16C211.74 42.27 213.46 44.74 214.67 47.58C215.88 50.42 216.49 53.54 216.49 56.92C216.49 60.3 215.88 63.43 214.67 66.3C213.45 69.17 211.74 71.64 209.53 73.72C207.32 75.8 204.72 77.43 201.75 78.6C198.78 79.77 195.53 80.36 192.01 80.36ZM191.94 72.94C194.24 72.94 196.37 72.55 198.32 71.77C200.27 70.99 201.97 69.87 203.4 68.42C204.83 66.97 205.95 65.27 206.75 63.34C207.55 61.41 207.95 59.27 207.95 56.93C207.95 54.59 207.55 52.45 206.75 50.52C205.95 48.59 204.83 46.9 203.4 45.44C201.97 43.99 200.27 42.87 198.32 42.09C196.37 41.31 194.24 40.92 191.94 40.92C189.64 40.92 187.52 41.31 185.59 42.09C183.66 42.87 181.96 43.99 180.51 45.44C179.05 46.89 177.93 48.59 177.12 50.52C176.32 52.45 175.92 54.59 175.92 56.93C175.92 59.27 176.32 61.36 177.12 63.31C177.92 65.26 179.04 66.97 180.47 68.42C181.9 69.88 183.6 70.99 185.55 71.77C187.5 72.55 189.63 72.94 191.93 72.94H191.94Z" fill="white"/>
<path d="M233.941 79.71V34.13H240.911L260.831 67.4H257.181L276.781 34.13H283.751L283.811 79.71H275.801L275.731 46.7H277.421L260.751 74.51H256.971L240.041 46.7H241.991V79.71H233.921H233.941Z" fill="white"/>
<path d="M317.101 79.71L297.181 34.13H306.361L324.141 75.35H318.871L336.841 34.13H345.311L325.451 79.71H317.121H317.101Z" fill="white"/>
<path d="M358.581 79.71V34.13H367.041V79.71H358.581Z" fill="white"/>
<path d="M409.17 80.36C405.61 80.36 402.33 79.77 399.34 78.6C396.34 77.43 393.74 75.79 391.53 73.68C389.32 71.58 387.6 69.1 386.39 66.26C385.17 63.42 384.57 60.3 384.57 56.92C384.57 53.54 385.18 50.42 386.39 47.58C387.6 44.74 389.32 42.26 391.53 40.16C393.74 38.05 396.35 36.42 399.34 35.24C402.34 34.07 405.59 33.48 409.11 33.48C412.63 33.48 415.94 34.07 418.91 35.24C421.88 36.41 424.48 38.05 426.69 40.16C428.9 42.27 430.62 44.74 431.83 47.58C433.04 50.42 433.65 53.54 433.65 56.92C433.65 60.3 433.04 63.43 431.83 66.3C430.61 69.17 428.9 71.64 426.69 73.72C424.48 75.8 421.88 77.43 418.91 78.6C415.94 79.77 412.69 80.36 409.18 80.36H409.17ZM409.11 72.94C411.41 72.94 413.54 72.55 415.49 71.77C417.44 70.99 419.14 69.87 420.57 68.42C422 66.97 423.12 65.27 423.92 63.34C424.72 61.41 425.12 59.27 425.12 56.93C425.12 54.59 424.72 52.45 423.92 50.52C423.12 48.59 422 46.9 420.57 45.44C419.14 43.99 417.44 42.87 415.49 42.09C413.54 41.31 411.41 40.92 409.11 40.92C406.81 40.92 404.69 41.31 402.76 42.09C400.83 42.87 399.14 43.99 397.68 45.44C396.22 46.89 395.1 48.59 394.29 50.52C393.49 52.45 393.09 54.59 393.09 56.93C393.09 59.27 393.49 61.36 394.29 63.31C395.09 65.26 396.21 66.97 397.64 68.42C399.07 69.88 400.77 70.99 402.72 71.77C404.67 72.55 406.8 72.94 409.1 72.94H409.11Z" fill="white"/>
<path d="M123.281 102.5C122.431 102.5 121.651 102.36 120.931 102.08C120.211 101.8 119.591 101.4 119.071 100.89C118.541 100.38 118.131 99.77 117.841 99.08C117.541 98.39 117.391 97.63 117.391 96.8C117.391 95.97 117.541 95.21 117.841 94.52C118.141 93.83 118.551 93.23 119.081 92.71C119.611 92.19 120.231 91.8 120.951 91.52C121.671 91.24 122.451 91.1 123.301 91.1C124.151 91.1 124.951 91.25 125.681 91.54C126.411 91.83 127.021 92.26 127.531 92.84L126.501 93.84C126.081 93.39 125.601 93.06 125.071 92.85C124.541 92.64 123.971 92.52 123.371 92.52C122.771 92.52 122.161 92.63 121.631 92.84C121.091 93.05 120.631 93.35 120.241 93.73C119.851 94.11 119.541 94.57 119.321 95.09C119.101 95.61 118.991 96.19 118.991 96.8C118.991 97.41 119.101 97.99 119.321 98.51C119.541 99.04 119.841 99.49 120.241 99.87C120.631 100.25 121.101 100.55 121.631 100.76C122.171 100.97 122.751 101.08 123.371 101.08C123.991 101.08 124.541 100.97 125.071 100.75C125.601 100.53 126.081 100.2 126.501 99.74L127.531 100.74C127.021 101.31 126.401 101.75 125.681 102.05C124.961 102.35 124.151 102.5 123.281 102.5Z" fill="#87E0DC"/>
<path d="M130.761 102.37V91.23H132.351V100.99H138.381V102.37H130.761Z" fill="#87E0DC"/>
<path d="M141.321 102.37V91.23H149.181V92.61H142.911V100.98H149.401V102.36H141.311L141.321 102.37ZM142.771 97.39V96.04H148.501V97.39H142.771Z" fill="#87E0DC"/>
<path d="M151.41 102.37L156.46 91.23H158.04L163.1 102.37H161.43L156.93 92.12H157.57L153.07 102.37H151.43H151.41ZM153.56 99.59L153.99 98.32H160.26L160.72 99.59H153.56Z" fill="#87E0DC"/>
<path d="M165.86 102.37V91.23H167.17L174.54 100.38H173.86V91.23H175.45V102.37H174.14L166.77 93.22H167.45V102.37H165.86Z" fill="#87E0DC"/>
<path d="M188.54 102.5C187.69 102.5 186.881 102.37 186.101 102.11C185.331 101.85 184.721 101.51 184.271 101.1L184.861 99.86C185.281 100.23 185.83 100.54 186.48 100.78C187.14 101.02 187.821 101.15 188.531 101.15C189.181 101.15 189.701 101.08 190.111 100.93C190.511 100.78 190.811 100.58 191.001 100.32C191.191 100.06 191.29 99.77 191.29 99.44C191.29 99.06 191.171 98.75 190.921 98.52C190.671 98.29 190.351 98.1 189.951 97.95C189.551 97.81 189.111 97.68 188.641 97.58C188.171 97.48 187.681 97.35 187.201 97.21C186.721 97.07 186.281 96.88 185.881 96.66C185.481 96.44 185.161 96.14 184.921 95.76C184.681 95.38 184.551 94.9 184.551 94.3C184.551 93.7 184.701 93.2 185.001 92.72C185.301 92.24 185.77 91.85 186.4 91.56C187.03 91.27 187.831 91.12 188.811 91.12C189.461 91.12 190.101 91.2 190.741 91.37C191.381 91.54 191.931 91.78 192.391 92.1L191.87 93.37C191.39 93.05 190.891 92.82 190.361 92.68C189.831 92.54 189.321 92.47 188.821 92.47C188.191 92.47 187.681 92.55 187.281 92.71C186.881 92.87 186.58 93.08 186.4 93.35C186.21 93.62 186.12 93.91 186.12 94.24C186.12 94.63 186.241 94.95 186.491 95.18C186.741 95.41 187.061 95.6 187.461 95.74C187.861 95.88 188.301 96 188.771 96.11C189.251 96.22 189.731 96.35 190.211 96.48C190.691 96.62 191.131 96.8 191.531 97.02C191.931 97.24 192.251 97.54 192.491 97.91C192.731 98.28 192.861 98.76 192.861 99.34C192.861 99.92 192.71 100.42 192.4 100.91C192.09 101.4 191.62 101.78 190.98 102.07C190.34 102.36 189.531 102.51 188.551 102.51L188.54 102.5Z" fill="#87E0DC"/>
<path d="M196.291 102.37V91.23H200.631C201.611 91.23 202.441 91.38 203.131 91.69C203.821 92 204.351 92.44 204.721 93.03C205.091 93.61 205.281 94.31 205.281 95.11C205.281 95.91 205.091 96.61 204.721 97.19C204.351 97.77 203.821 98.21 203.131 98.53C202.441 98.84 201.611 99 200.631 99H197.161L197.881 98.25V102.37H196.291ZM197.881 98.41L197.161 97.61H200.581C201.601 97.61 202.371 97.39 202.901 96.96C203.431 96.53 203.691 95.91 203.691 95.11C203.691 94.31 203.431 93.7 202.901 93.26C202.371 92.82 201.601 92.61 200.581 92.61H197.161L197.881 91.81V98.4V98.41Z" fill="#87E0DC"/>
<path d="M206.49 102.37L211.54 91.23H213.12L218.18 102.37H216.51L212.01 92.12H212.65L208.15 102.37H206.51H206.49ZM208.64 99.59L209.07 98.32H215.34L215.8 99.59H208.64Z" fill="#87E0DC"/>
<path d="M225.771 102.5C224.921 102.5 224.141 102.36 223.421 102.08C222.701 101.8 222.081 101.4 221.561 100.89C221.031 100.38 220.621 99.77 220.331 99.08C220.031 98.39 219.881 97.63 219.881 96.8C219.881 95.97 220.031 95.21 220.331 94.52C220.631 93.83 221.041 93.23 221.571 92.71C222.101 92.19 222.721 91.8 223.441 91.52C224.161 91.24 224.941 91.1 225.791 91.1C226.641 91.1 227.441 91.25 228.171 91.54C228.901 91.83 229.511 92.26 230.021 92.84L228.991 93.84C228.571 93.39 228.091 93.06 227.561 92.85C227.031 92.64 226.461 92.52 225.861 92.52C225.261 92.52 224.651 92.63 224.121 92.84C223.581 93.05 223.121 93.35 222.731 93.73C222.341 94.11 222.031 94.57 221.811 95.09C221.591 95.61 221.481 96.19 221.481 96.8C221.481 97.41 221.591 97.99 221.811 98.51C222.031 99.04 222.331 99.49 222.731 99.87C223.121 100.25 223.591 100.55 224.121 100.76C224.661 100.97 225.241 101.08 225.861 101.08C226.481 101.08 227.031 100.97 227.561 100.75C228.091 100.53 228.571 100.2 228.991 99.74L230.021 100.74C229.511 101.31 228.891 101.75 228.171 102.05C227.451 102.35 226.641 102.5 225.771 102.5Z" fill="#87E0DC"/>
<path d="M233.251 102.37V91.23H241.111V92.61H234.841V100.98H241.331V102.36H233.251V102.37ZM234.701 97.39V96.04H240.431V97.39H234.701Z" fill="#87E0DC"/>
<path d="M248.271 102.5C247.421 102.5 246.611 102.37 245.841 102.11C245.071 101.85 244.461 101.51 244.011 101.1L244.601 99.86C245.021 100.23 245.571 100.54 246.221 100.78C246.881 101.02 247.561 101.15 248.271 101.15C248.921 101.15 249.441 101.08 249.851 100.93C250.251 100.78 250.551 100.58 250.741 100.32C250.931 100.06 251.031 99.77 251.031 99.44C251.031 99.06 250.911 98.75 250.661 98.52C250.411 98.29 250.091 98.1 249.691 97.95C249.291 97.81 248.851 97.68 248.381 97.58C247.901 97.47 247.421 97.35 246.941 97.21C246.461 97.07 246.021 96.88 245.621 96.66C245.221 96.44 244.901 96.14 244.661 95.76C244.421 95.38 244.291 94.9 244.291 94.3C244.291 93.7 244.441 93.2 244.741 92.72C245.041 92.24 245.511 91.85 246.141 91.56C246.771 91.27 247.571 91.12 248.551 91.12C249.201 91.12 249.841 91.2 250.481 91.37C251.121 91.54 251.671 91.78 252.131 92.1L251.611 93.37C251.131 93.05 250.631 92.82 250.101 92.68C249.571 92.54 249.051 92.47 248.561 92.47C247.931 92.47 247.421 92.55 247.021 92.71C246.621 92.87 246.321 93.08 246.141 93.35C245.951 93.62 245.861 93.91 245.861 94.24C245.861 94.63 245.981 94.95 246.231 95.18C246.481 95.41 246.801 95.6 247.201 95.74C247.601 95.88 248.041 96 248.511 96.11C248.991 96.22 249.471 96.35 249.951 96.48C250.431 96.62 250.871 96.8 251.271 97.02C251.671 97.24 251.991 97.54 252.231 97.91C252.471 98.28 252.601 98.76 252.601 99.34C252.601 99.92 252.451 100.42 252.141 100.91C251.831 101.4 251.361 101.78 250.721 102.07C250.081 102.36 249.271 102.51 248.291 102.51L248.271 102.5Z" fill="#87E0DC"/>
<path d="M256.48 102.47C256.18 102.47 255.93 102.37 255.72 102.16C255.51 101.95 255.4 101.69 255.4 101.37C255.4 101.05 255.51 100.79 255.72 100.59C255.93 100.39 256.19 100.29 256.48 100.29C256.77 100.29 257.01 100.39 257.22 100.59C257.43 100.79 257.53 101.05 257.53 101.37C257.53 101.69 257.43 101.95 257.22 102.16C257.01 102.37 256.77 102.47 256.48 102.47Z" fill="#87E0DC"/>
<path d="M266.461 102.37V91.23H271.461C272.741 91.23 273.731 91.49 274.421 92C275.111 92.52 275.451 93.22 275.451 94.11C275.451 94.72 275.321 95.22 275.041 95.64C274.771 96.05 274.411 96.37 273.951 96.59C273.491 96.81 273.001 96.92 272.471 96.92L272.761 96.44C273.401 96.44 273.961 96.55 274.451 96.77C274.941 96.99 275.331 97.32 275.611 97.75C275.901 98.18 276.041 98.71 276.041 99.35C276.041 100.3 275.681 101.05 274.971 101.57C274.251 102.09 273.191 102.36 271.781 102.36H266.461V102.37ZM268.051 101.08H271.711C272.591 101.08 273.261 100.93 273.731 100.63C274.201 100.33 274.431 99.87 274.431 99.23C274.431 98.59 274.201 98.11 273.731 97.81C273.261 97.51 272.591 97.36 271.711 97.36H267.911V96.07H271.321C272.131 96.07 272.751 95.92 273.201 95.62C273.651 95.32 273.871 94.88 273.871 94.28C273.871 93.68 273.651 93.24 273.201 92.94C272.751 92.64 272.131 92.49 271.321 92.49H268.061V101.05L268.051 101.08Z" fill="#87E0DC"/>
<path d="M279.621 102.37V91.23H287.481V92.61H281.211V100.98H287.701V102.36H279.621V102.37ZM281.071 97.39V96.04H286.801V97.39H281.071Z" fill="#87E0DC"/>
<path d="M293.611 102.37V92.61H289.791V91.23H299.011V92.61H295.191V102.37H293.611Z" fill="#87E0DC"/>
<path d="M304.23 102.37V92.61H300.41V91.23H309.63V92.61H305.81V102.37H304.23Z" fill="#87E0DC"/>
<path d="M312.471 102.37V91.23H320.331V92.61H314.061V100.98H320.551V102.36H312.471V102.37ZM313.921 97.39V96.04H319.651V97.39H313.921Z" fill="#87E0DC"/>
<path d="M324.251 102.37V91.23H328.601C330.041 91.23 331.181 91.57 332.011 92.26C332.841 92.94 333.251 93.9 333.251 95.12C333.251 95.93 333.061 96.62 332.691 97.2C332.321 97.78 331.791 98.22 331.101 98.53C330.411 98.84 329.581 98.99 328.601 98.99H325.131L325.851 98.26V102.38H324.261L324.251 102.37ZM325.841 98.41L325.121 97.63H328.541C329.561 97.63 330.331 97.41 330.861 96.97C331.391 96.53 331.651 95.91 331.651 95.12C331.651 94.33 331.391 93.71 330.861 93.27C330.341 92.84 329.561 92.62 328.541 92.62H325.121L325.841 91.82V98.41ZM331.701 102.37L328.871 98.33H330.571L333.441 102.37H331.701Z" fill="#87E0DC"/>
<path d="M342.331 102.37V91.23H343.921V100.99H349.951V102.37H342.331Z" fill="#87E0DC"/>
<path d="M352.9 102.37V91.23H354.49V102.37H352.9Z" fill="#87E0DC"/>
<path d="M361.921 102.37L357.021 91.23H358.741L363.241 101.51H362.251L366.791 91.23H368.381L363.491 102.37H361.911H361.921Z" fill="#87E0DC"/>
<path d="M370.91 102.37V91.23H372.5V102.37H370.91Z" fill="#87E0DC"/>
<path d="M376.961 102.37V91.23H378.271L385.641 100.38H384.961V91.23H386.551V102.37H385.251L377.881 93.22H378.561V102.37H376.971H376.961Z" fill="#87E0DC"/>
<path d="M396.031 102.5C395.171 102.5 394.381 102.36 393.661 102.08C392.941 101.8 392.311 101.4 391.781 100.89C391.251 100.38 390.841 99.77 390.541 99.08C390.241 98.39 390.091 97.63 390.091 96.8C390.091 95.97 390.241 95.21 390.541 94.52C390.841 93.83 391.251 93.23 391.791 92.71C392.331 92.19 392.951 91.8 393.681 91.52C394.401 91.24 395.201 91.1 396.071 91.1C396.941 91.1 397.761 91.24 398.491 91.53C399.221 91.82 399.841 92.25 400.351 92.82L399.361 93.81C398.901 93.36 398.411 93.04 397.871 92.83C397.331 92.62 396.751 92.52 396.131 92.52C395.511 92.52 394.901 92.63 394.351 92.84C393.801 93.05 393.331 93.35 392.931 93.73C392.531 94.11 392.221 94.57 392.011 95.09C391.791 95.61 391.681 96.19 391.681 96.8C391.681 97.41 391.791 97.97 392.011 98.5C392.231 99.03 392.541 99.48 392.931 99.87C393.331 100.26 393.801 100.56 394.341 100.77C394.881 100.98 395.471 101.09 396.111 101.09C396.701 101.09 397.271 101 397.821 100.81C398.371 100.62 398.871 100.31 399.341 99.88L400.251 101.09C399.701 101.56 399.051 101.91 398.321 102.15C397.581 102.39 396.821 102.51 396.041 102.51L396.031 102.5ZM400.241 101.08L398.711 100.87V96.73H400.241V101.07V101.08Z" fill="#87E0DC"/>
<path d="M404.701 102.47C404.401 102.47 404.151 102.37 403.941 102.16C403.731 101.95 403.621 101.69 403.621 101.37C403.621 101.05 403.731 100.79 403.941 100.59C404.151 100.39 404.411 100.29 404.701 100.29C404.991 100.29 405.231 100.39 405.441 100.59C405.651 100.79 405.751 101.05 405.751 101.37C405.751 101.69 405.651 101.95 405.441 102.16C405.231 102.37 404.991 102.47 404.701 102.47Z" fill="#87E0DC"/>
<path d="M62.2805 25.55L65.6605 34.68L74.7905 38.05L65.6605 41.43L62.2805 50.56L58.9005 41.43L49.7705 38.05L58.9005 34.68L62.2805 25.55Z" fill="url(#paint0_linear_300_2444)"/>
<path d="M0.380575 40.2C0.250575 38.02 0.260575 35.85 0.410575 33.67C2.02057 22.04 9.98057 12.21 20.6206 7.12C18.4406 9.39 16.9006 11.6 15.8806 14.59C13.6206 21.2 14.5406 28.7 18.6206 34.5C22.4706 39.98 30.7406 44.88 37.1106 47.35L61.8506 56.93C67.4306 59.09 72.5006 61.56 77.6906 64.48C80.4206 66.02 82.7706 67.75 85.0906 69.79C93.8206 77.51 96.7906 89.22 92.9806 100.27C90.6406 107.05 86.4006 112.93 80.2106 117.02C87.0506 107.44 84.0206 95.8 75.7306 88.19C69.1106 82.35 58.6306 77.83 50.1806 74.71L30.9406 67.59C25.6306 65.63 20.6606 63.5 15.7206 60.79C7.44058 56.26 1.52057 49.65 0.380575 40.2Z" fill="url(#paint1_linear_300_2444)"/>
<path d="M73.0902 120.35C69.9502 122.54 65.9302 123.2 62.4302 124.41C62.0002 121.58 61.2902 117.54 57.3602 112.84C48.4002 102.1 24.4802 87.64 12.2802 80.52L12.2602 80.5C8.06024 78.05 5.26024 76.47 4.94024 76.21C4.86024 76.15 4.81024 76.11 4.81024 76.11C4.81024 76.11 4.86024 76.19 4.94024 76.35C4.97024 76.4 4.99024 76.44 5.02024 76.5C6.01024 78.12 10.4302 84.77 22.2202 93.47C22.4202 93.62 22.6302 93.76 22.8302 93.92C23.3902 94.33 23.9702 94.74 24.5402 95.14C24.8802 95.39 25.2102 95.62 25.5602 95.85C26.0902 96.2 26.6202 96.58 27.1802 96.94C27.1802 96.94 27.2002 96.94 27.2102 96.96C31.0902 99.54 34.4802 101.82 37.4602 103.91C37.6002 104 37.7302 104.1 37.8702 104.2C43.7202 108.31 48.0002 111.71 51.4602 115.38C51.6102 115.53 51.7702 115.7 51.9102 115.85C54.3702 118.52 56.4102 121.35 58.3102 124.71C47.7302 126.72 34.5802 123.51 25.0902 118.52L18.8402 114.29C15.7002 112.16 13.2502 109.19 10.6602 106.23C8.71024 104 7.19024 101.59 5.85024 99.09C4.34024 96.27 3.00024 93.3 2.18024 90.03C1.20024 86.11 -0.0197573 82.28 0.000242717 78.26L0.0402427 68.94C5.93024 73.17 11.6702 76.26 17.8402 78.77L27.9402 82.88L45.9802 89.78C52.9402 92.44 59.4302 96.13 65.5502 100.67C68.4102 102.8 70.8402 105.2 72.5202 108.15C73.4602 109.8 74.0202 111.37 74.4802 113.3C74.5102 113.41 74.5303 113.53 74.5502 113.64C74.9702 115.64 75.0202 119.01 73.0902 120.35Z" fill="url(#paint2_linear_300_2444)"/>
<path d="M27.4901 4.51C26.1601 5.33 24.9001 6.28 23.7601 7.42C18.8301 12.35 16.8601 19.61 18.5901 26.71C18.5901 26.71 48.1401 -0.65 89.3701 34.03C80.4401 25.1 51.5301 0.660003 27.4901 4.51Z" fill="url(#paint3_linear_300_2444)"/>
<path d="M53.3402 0H47.9102C42.1802 0 33.9302 0.55 27.4902 4.51C51.5302 0.66 80.4402 25.1 89.3702 34.03L89.4902 21.14C89.5302 17.42 87.8502 13.87 84.9102 11.58C75.8902 4.54 64.9002 0.6 53.3402 0Z" fill="url(#paint4_linear_300_2444)"/>
<path d="M73.0898 120.35C69.9498 122.54 65.9298 123.2 62.4298 124.41C61.9998 121.58 61.2898 117.54 57.3598 112.84C48.3998 102.1 24.4798 87.64 12.2798 80.52L12.2598 80.5C22.8698 86.85 71.6498 102.48 74.4798 113.31C74.5098 113.42 74.5298 113.54 74.5498 113.65C74.9698 115.65 75.0198 119.02 73.0898 120.36V120.35Z" fill="url(#paint5_linear_300_2444)"/>
<defs>
<linearGradient id="paint0_linear_300_2444" x1="55.9505" y1="31.85" x2="68.5005" y2="44.15" gradientUnits="userSpaceOnUse">
<stop stop-color="#85DADC"/>
<stop offset="0.6" stop-color="#2DBBBD"/>
<stop offset="1" stop-color="#46C3C6"/>
</linearGradient>
<linearGradient id="paint1_linear_300_2444" x1="2.77058" y1="18.71" x2="88.3306" y2="104.28" gradientUnits="userSpaceOnUse">
<stop stop-color="#8CFFFF"/>
<stop offset="0.51" stop-color="#00CDCC"/>
<stop offset="1" stop-color="#8CFFFF"/>
</linearGradient>
<linearGradient id="paint2_linear_300_2444" x1="49.8802" y1="78.8" x2="-28.0397" y2="172.02" gradientUnits="userSpaceOnUse">
<stop stop-color="#1B8B90"/>
<stop offset="1"/>
</linearGradient>
<linearGradient id="paint3_linear_300_2444" x1="72.2201" y1="10.39" x2="-50.9199" y2="89.7" gradientUnits="userSpaceOnUse">
<stop stop-color="#1B8B90"/>
<stop offset="1"/>
</linearGradient>
<linearGradient id="paint4_linear_300_2444" x1="26.7702" y1="-17.53" x2="111.65" y2="56.21" gradientUnits="userSpaceOnUse">
<stop stop-color="#8CFFFF"/>
<stop offset="0.51" stop-color="#00CDCC"/>
<stop offset="1" stop-color="#8CFFFF"/>
</linearGradient>
<linearGradient id="paint5_linear_300_2444" x1="13.5298" y1="74.22" x2="105.36" y2="147.27" gradientUnits="userSpaceOnUse">
<stop stop-color="#8CFFFF"/>
<stop offset="0.51" stop-color="#00CDCC"/>
<stop offset="1" stop-color="#8CFFFF"/>
</linearGradient>
</defs>
</svg>
