<svg width="32" height="32" viewBox="0 0 32 32" fill="none" xmlns="http://www.w3.org/2000/svg">
<path id="Union" d="M16 0C24.8364 1.93617e-05 32 7.16357 32 16C32 24.8364 24.8364 32 16 32C13.2133 32 10.5933 31.2876 8.31152 30.0352L0 32L2.13086 23.9824C0.775786 21.6331 0 18.9071 0 16C2.09403e-07 7.16356 7.16358 0 16 0ZM16 2.86523C8.74624 2.86523 2.86621 8.74622 2.86621 16C2.8663 18.7967 3.74033 21.3894 5.23047 23.5195L3.85254 28.2129L8.76367 26.9619C10.7091 28.249 13.0166 29.0322 15.501 29.125L16 29.1338C23.2536 29.1338 29.1335 23.2536 29.1338 16C29.1338 8.74623 23.2537 2.86525 16 2.86523ZM11.6025 8.10352C11.7985 8.08752 11.9789 8.20211 12.0625 8.37988L13.8877 12.251C13.9737 12.434 13.936 12.6519 13.793 12.7949L12.4326 14.1553C12.1384 14.4495 12.0522 14.9079 12.2549 15.2715C12.7513 16.1616 13.4192 17.0188 14.1924 17.8076C14.9812 18.5808 15.8384 19.2492 16.7285 19.7451C17.092 19.9476 17.5501 19.8616 17.8447 19.5674L19.2051 18.207C19.3482 18.0639 19.5659 18.0256 19.749 18.1123L23.6201 19.9365C23.7979 20.0201 23.9115 20.2009 23.8955 20.3965C23.8537 20.9058 23.6494 21.9267 22.7344 22.8418C20.1513 25.4249 15.5121 22.5025 15.3232 22.3896C14.1824 21.7768 13.0983 20.9562 12.0703 19.9287C11.0429 18.9012 10.2222 17.8166 9.60938 16.6758C9.49302 16.4826 6.57542 11.8478 9.15723 9.26562C10.0723 8.35054 11.0932 8.1453 11.6025 8.10352Z" fill="currentColor"/>
</svg>
