<svg width="24" height="24" viewBox="0 0 24 24" fill="none" xmlns="http://www.w3.org/2000/svg">
<mask id="mask0_300_2606" style="mask-type:alpha" maskUnits="userSpaceOnUse" x="0" y="0" width="24" height="24">
<rect width="24" height="24" fill="#D9D9D9"/>
</mask>
<g mask="url(#mask0_300_2606)">
<path d="M5.019 20.173C4.80633 20.173 4.62825 20.1012 4.48475 19.9575C4.34108 19.8137 4.26925 19.6355 4.26925 19.423V18.423H4C3.30133 18.423 2.71 18.181 2.226 17.697C1.742 17.2132 1.5 16.6218 1.5 15.923V10.923C1.5 10.1858 1.75158 9.58491 2.25475 9.12024C2.75808 8.65541 3.33983 8.42299 4 8.42299V6.61549C4 5.91666 4.242 5.32533 4.726 4.84149C5.21 4.35749 5.80133 4.11549 6.5 4.11549H17.5C18.1987 4.11549 18.79 4.35749 19.274 4.84149C19.758 5.32533 20 5.91666 20 6.61549V8.42299C20.6858 8.42299 21.274 8.66024 21.7645 9.13474C22.2548 9.60908 22.5 10.2052 22.5 10.923V15.923C22.5 16.6218 22.258 17.2132 21.774 17.697C21.29 18.181 20.6987 18.423 20 18.423H19.7307V19.423C19.7307 19.6355 19.6622 19.8137 19.525 19.9575C19.3878 20.1012 19.2129 20.173 19.0002 20.173C18.7878 20.173 18.6096 20.1012 18.4657 19.9575C18.3219 19.8137 18.25 19.6355 18.25 19.423V18.423H5.76925V19.423C5.76925 19.6358 5.69733 19.8141 5.5535 19.9577C5.40967 20.1012 5.2315 20.173 5.019 20.173ZM4 16.923H20C20.2833 16.923 20.5208 16.8272 20.7125 16.6355C20.9042 16.4438 21 16.2063 21 15.923V10.923C21 10.6397 20.9042 10.4022 20.7125 10.2105C20.5208 10.0188 20.2833 9.92299 20 9.92299C19.7167 9.92299 19.4792 10.0188 19.2875 10.2105C19.0958 10.4022 19 10.6397 19 10.923V14.673H5V10.923C5 10.6397 4.90417 10.4022 4.7125 10.2105C4.52083 10.0188 4.28333 9.92299 4 9.92299C3.71667 9.92299 3.47917 10.0188 3.2875 10.2105C3.09583 10.4022 3 10.6397 3 10.923V15.923C3 16.2063 3.09583 16.4438 3.2875 16.6355C3.47917 16.8272 3.71667 16.923 4 16.923ZM6.5 13.173H17.5V10.923C17.5 10.518 17.5917 10.1482 17.775 9.81349C17.9583 9.47883 18.2 9.19866 18.5 8.97299V6.61549C18.5 6.33216 18.4042 6.09466 18.2125 5.90299C18.0208 5.71133 17.7833 5.61549 17.5 5.61549H6.5C6.21667 5.61549 5.97917 5.71133 5.7875 5.90299C5.59583 6.09466 5.5 6.33216 5.5 6.61549V8.97299C5.8 9.19866 6.04167 9.47883 6.225 9.81349C6.40833 10.1482 6.5 10.518 6.5 10.923V13.173Z" fill="#40D7D0"/>
<path d="M5.019 20.173C4.80633 20.173 4.62825 20.1012 4.48475 19.9575C4.34108 19.8137 4.26925 19.6355 4.26925 19.423V18.423H4C3.30133 18.423 2.71 18.181 2.226 17.697C1.742 17.2132 1.5 16.6218 1.5 15.923V10.923C1.5 10.1858 1.75158 9.58491 2.25475 9.12024C2.75808 8.65541 3.33983 8.42299 4 8.42299V6.61549C4 5.91666 4.242 5.32533 4.726 4.84149C5.21 4.35749 5.80133 4.11549 6.5 4.11549H17.5C18.1987 4.11549 18.79 4.35749 19.274 4.84149C19.758 5.32533 20 5.91666 20 6.61549V8.42299C20.6858 8.42299 21.274 8.66024 21.7645 9.13474C22.2548 9.60908 22.5 10.2052 22.5 10.923V15.923C22.5 16.6218 22.258 17.2132 21.774 17.697C21.29 18.181 20.6987 18.423 20 18.423H19.7307V19.423C19.7307 19.6355 19.6622 19.8137 19.525 19.9575C19.3878 20.1012 19.2129 20.173 19.0002 20.173C18.7878 20.173 18.6096 20.1012 18.4657 19.9575C18.3219 19.8137 18.25 19.6355 18.25 19.423V18.423H5.76925V19.423C5.76925 19.6358 5.69733 19.8141 5.5535 19.9577C5.40967 20.1012 5.2315 20.173 5.019 20.173ZM4 16.923H20C20.2833 16.923 20.5208 16.8272 20.7125 16.6355C20.9042 16.4438 21 16.2063 21 15.923V10.923C21 10.6397 20.9042 10.4022 20.7125 10.2105C20.5208 10.0188 20.2833 9.92299 20 9.92299C19.7167 9.92299 19.4792 10.0188 19.2875 10.2105C19.0958 10.4022 19 10.6397 19 10.923V14.673H5V10.923C5 10.6397 4.90417 10.4022 4.7125 10.2105C4.52083 10.0188 4.28333 9.92299 4 9.92299C3.71667 9.92299 3.47917 10.0188 3.2875 10.2105C3.09583 10.4022 3 10.6397 3 10.923V15.923C3 16.2063 3.09583 16.4438 3.2875 16.6355C3.47917 16.8272 3.71667 16.923 4 16.923ZM6.5 13.173H17.5V10.923C17.5 10.518 17.5917 10.1482 17.775 9.81349C17.9583 9.47883 18.2 9.19866 18.5 8.97299V6.61549C18.5 6.33216 18.4042 6.09466 18.2125 5.90299C18.0208 5.71133 17.7833 5.61549 17.5 5.61549H6.5C6.21667 5.61549 5.97917 5.71133 5.7875 5.90299C5.59583 6.09466 5.5 6.33216 5.5 6.61549V8.97299C5.8 9.19866 6.04167 9.47883 6.225 9.81349C6.40833 10.1482 6.5 10.518 6.5 10.923V13.173Z" fill="black" fill-opacity="0.2"/>
</g>
</svg>
