<svg width="48" height="48" viewBox="0 0 48 48" fill="none" xmlns="http://www.w3.org/2000/svg">
<mask id="mask0_300_2585" style="mask-type:alpha" maskUnits="userSpaceOnUse" x="0" y="0" width="48" height="48">
<rect width="48" height="48" fill="#D9D9D9"/>
</mask>
<g mask="url(#mask0_300_2585)">
<path d="M11.381 38.529C10.0177 37.1123 8.94667 35.4833 8.168 33.642C7.38933 31.8007 7 29.9137 7 27.981C7 25.7653 7.39617 23.6973 8.1885 21.777C8.98083 19.8563 10.1822 18.091 11.7925 16.481C13.0105 15.2577 14.5438 14.2665 16.3925 13.5075C18.2412 12.7488 20.3245 12.1733 22.6425 11.781C24.9605 11.3887 27.4682 11.1533 30.1655 11.075C32.8628 10.997 35.6757 11.0425 38.604 11.2115C38.8063 14.1322 38.8787 16.9495 38.821 19.6635C38.7633 22.3775 38.5352 24.8995 38.1365 27.2295C37.7378 29.5598 37.1493 31.6583 36.371 33.525C35.593 35.392 34.5885 36.9413 33.3575 38.173C31.7652 39.7857 30.0338 40.9933 28.1635 41.796C26.2928 42.5987 24.3285 43 22.2705 43C20.1542 43 18.173 42.6275 16.327 41.8825C14.4807 41.1378 12.832 40.02 11.381 38.529ZM15.5305 38.7885C16.4408 39.4192 17.4845 39.9005 18.6615 40.2325C19.8385 40.5645 21.0405 40.7305 22.2675 40.7305C23.9852 40.7305 25.659 40.38 27.289 39.679C28.9193 38.9777 30.4115 37.9333 31.7655 36.546C32.5862 35.723 33.3087 34.6347 33.933 33.281C34.5573 31.927 35.0752 30.2903 35.4865 28.371C35.8975 26.452 36.1852 24.2457 36.3495 21.752C36.5138 19.2583 36.5358 16.4538 36.4155 13.3385C33.6925 13.2718 31.1373 13.3007 28.75 13.425C26.363 13.5493 24.1938 13.8018 22.2425 14.1825C20.2912 14.5635 18.5745 15.0623 17.0925 15.679C15.6105 16.2957 14.4105 17.0732 13.4925 18.0115C12.0795 19.4448 11.0223 20.9743 10.321 22.6C9.62 24.2257 9.2695 25.827 9.2695 27.404C9.2695 29.0297 9.61433 30.7047 10.304 32.429C10.9937 34.1533 11.8962 35.5552 13.0115 36.6345C14.3808 33.6755 16.1417 30.9858 18.294 28.5655C20.4467 26.1448 22.964 24.1012 25.846 22.4345C23.1383 24.7808 20.9422 27.2777 19.2575 29.925C17.5728 32.5723 16.3305 35.5268 15.5305 38.7885Z" fill="#40D7D0"/>
<path d="M11.381 38.529C10.0177 37.1123 8.94667 35.4833 8.168 33.642C7.38933 31.8007 7 29.9137 7 27.981C7 25.7653 7.39617 23.6973 8.1885 21.777C8.98083 19.8563 10.1822 18.091 11.7925 16.481C13.0105 15.2577 14.5438 14.2665 16.3925 13.5075C18.2412 12.7488 20.3245 12.1733 22.6425 11.781C24.9605 11.3887 27.4682 11.1533 30.1655 11.075C32.8628 10.997 35.6757 11.0425 38.604 11.2115C38.8063 14.1322 38.8787 16.9495 38.821 19.6635C38.7633 22.3775 38.5352 24.8995 38.1365 27.2295C37.7378 29.5598 37.1493 31.6583 36.371 33.525C35.593 35.392 34.5885 36.9413 33.3575 38.173C31.7652 39.7857 30.0338 40.9933 28.1635 41.796C26.2928 42.5987 24.3285 43 22.2705 43C20.1542 43 18.173 42.6275 16.327 41.8825C14.4807 41.1378 12.832 40.02 11.381 38.529ZM15.5305 38.7885C16.4408 39.4192 17.4845 39.9005 18.6615 40.2325C19.8385 40.5645 21.0405 40.7305 22.2675 40.7305C23.9852 40.7305 25.659 40.38 27.289 39.679C28.9193 38.9777 30.4115 37.9333 31.7655 36.546C32.5862 35.723 33.3087 34.6347 33.933 33.281C34.5573 31.927 35.0752 30.2903 35.4865 28.371C35.8975 26.452 36.1852 24.2457 36.3495 21.752C36.5138 19.2583 36.5358 16.4538 36.4155 13.3385C33.6925 13.2718 31.1373 13.3007 28.75 13.425C26.363 13.5493 24.1938 13.8018 22.2425 14.1825C20.2912 14.5635 18.5745 15.0623 17.0925 15.679C15.6105 16.2957 14.4105 17.0732 13.4925 18.0115C12.0795 19.4448 11.0223 20.9743 10.321 22.6C9.62 24.2257 9.2695 25.827 9.2695 27.404C9.2695 29.0297 9.61433 30.7047 10.304 32.429C10.9937 34.1533 11.8962 35.5552 13.0115 36.6345C14.3808 33.6755 16.1417 30.9858 18.294 28.5655C20.4467 26.1448 22.964 24.1012 25.846 22.4345C23.1383 24.7808 20.9422 27.2777 19.2575 29.925C17.5728 32.5723 16.3305 35.5268 15.5305 38.7885Z" fill="black" fill-opacity="0.2"/>
</g>
</svg>
