<svg preserveAspectRatio="none" overflow="visible" style="display: block;" width="33.5" height="43.5" viewBox="0 0 33.5 43.5" fill="none" xmlns="http://www.w3.org/2000/svg">
<g id="kitchen">
<path d="M7.1875 11.5625V5.375H8.5625V11.5625H7.1875ZM7.1875 31.1875V20.875H8.5625V31.1875H7.1875ZM3.375 43.5C2.46875 43.5 1.67979 43.164 1.00813 42.4919C0.336042 41.8202 0 41.0313 0 40.125V3.375C0 2.46875 0.336042 1.67958 1.00813 1.0075C1.67979 0.335833 2.46875 0 3.375 0H30.125C31.0313 0 31.8204 0.335833 32.4925 1.0075C33.1642 1.67958 33.5 2.46875 33.5 3.375V40.125C33.5 41.0313 33.1642 41.8202 32.4925 42.4919C31.8204 43.164 31.0313 43.5 30.125 43.5H3.375ZM3.375 42.125H30.125C30.7083 42.125 31.1875 41.9375 31.5625 41.5625C31.9375 41.1875 32.125 40.7083 32.125 40.125V16.9375H1.375V40.125C1.375 40.7083 1.5625 41.1875 1.9375 41.5625C2.3125 41.9375 2.79167 42.125 3.375 42.125ZM1.375 15.5625H32.125V3.375C32.125 2.79167 31.9375 2.3125 31.5625 1.9375C31.1875 1.5625 30.7083 1.375 30.125 1.375H3.375C2.79167 1.375 2.3125 1.5625 1.9375 1.9375C1.5625 2.3125 1.375 2.79167 1.375 3.375V15.5625Z" fill="#40D7D0"/>
<path d="M7.1875 11.5625V5.375H8.5625V11.5625H7.1875ZM7.1875 31.1875V20.875H8.5625V31.1875H7.1875ZM3.375 43.5C2.46875 43.5 1.67979 43.164 1.00813 42.4919C0.336042 41.8202 0 41.0313 0 40.125V3.375C0 2.46875 0.336042 1.67958 1.00813 1.0075C1.67979 0.335833 2.46875 0 3.375 0H30.125C31.0313 0 31.8204 0.335833 32.4925 1.0075C33.1642 1.67958 33.5 2.46875 33.5 3.375V40.125C33.5 41.0313 33.1642 41.8202 32.4925 42.4919C31.8204 43.164 31.0313 43.5 30.125 43.5H3.375ZM3.375 42.125H30.125C30.7083 42.125 31.1875 41.9375 31.5625 41.5625C31.9375 41.1875 32.125 40.7083 32.125 40.125V16.9375H1.375V40.125C1.375 40.7083 1.5625 41.1875 1.9375 41.5625C2.3125 41.9375 2.79167 42.125 3.375 42.125ZM1.375 15.5625H32.125V3.375C32.125 2.79167 31.9375 2.3125 31.5625 1.9375C31.1875 1.5625 30.7083 1.375 30.125 1.375H3.375C2.79167 1.375 2.3125 1.5625 1.9375 1.9375C1.5625 2.3125 1.375 2.79167 1.375 3.375V15.5625Z" fill="black" fill-opacity="0.2"/>
</g>
</svg>
