<svg width="24" height="24" preserveAspectRatio="xMidYMid meet" viewBox="0 0 17 16" fill="none" xmlns="http://www.w3.org/2000/svg">
<g id="stockpot">
<path d="M0 4.4905H17V13.2885C17 14.0417 16.7363 14.6818 16.209 15.209C15.6818 15.7363 15.0417 16 14.2885 16H2.7115C1.95833 16 1.31817 15.7363 0.791 15.209C0.263667 14.6818 0 14.0417 0 13.2885V4.4905ZM1.5 5.99025V13.2885C1.5 13.6317 1.61608 13.9194 1.84825 14.1518C2.08058 14.3839 2.36833 14.5 2.7115 14.5H14.2885C14.6317 14.5 14.9194 14.3839 15.1518 14.1518C15.3839 13.9194 15.5 13.6317 15.5 13.2885V5.99025H1.5ZM0 3.298V1.798H5.75V0.913499C5.75 0.654666 5.83625 0.43775 6.00875 0.26275C6.18108 0.0875836 6.39767 0 6.6585 0H10.3415C10.6023 0 10.8189 0.0875836 10.9913 0.26275C11.1638 0.43775 11.25 0.654666 11.25 0.913499V1.798H17V3.298H0Z" fill="#40D7D0"/>
<path d="M0 4.4905H17V13.2885C17 14.0417 16.7363 14.6818 16.209 15.209C15.6818 15.7363 15.0417 16 14.2885 16H2.7115C1.95833 16 1.31817 15.7363 0.791 15.209C0.263667 14.6818 0 14.0417 0 13.2885V4.4905ZM1.5 5.99025V13.2885C1.5 13.6317 1.61608 13.9194 1.84825 14.1518C2.08058 14.3839 2.36833 14.5 2.7115 14.5H14.2885C14.6317 14.5 14.9194 14.3839 15.1518 14.1518C15.3839 13.9194 15.5 13.6317 15.5 13.2885V5.99025H1.5ZM0 3.298V1.798H5.75V0.913499C5.75 0.654666 5.83625 0.43775 6.00875 0.26275C6.18108 0.0875836 6.39767 0 6.6585 0H10.3415C10.6023 0 10.8189 0.0875836 10.9913 0.26275C11.1638 0.43775 11.25 0.654666 11.25 0.913499V1.798H17V3.298H0Z" fill="black" fill-opacity="0.2"/>
</g>
</svg>
