<svg width="48" height="48" viewBox="0 0 48 48" fill="none" xmlns="http://www.w3.org/2000/svg">
<mask id="mask0_300_2591" style="mask-type:alpha" maskUnits="userSpaceOnUse" x="0" y="0" width="48" height="48">
<rect width="48" height="48" fill="#D9D9D9"/>
</mask>
<g mask="url(#mask0_300_2591)">
<path d="M12.5576 41V38.377C13.5143 37.7667 14.3393 37.1268 15.0326 36.4575C15.7263 35.7885 16.304 35.0937 16.7656 34.373C17.227 33.6527 17.5686 32.9078 17.7906 32.1385C18.0123 31.3692 18.1231 30.5922 18.1231 29.8075C18.1231 29.3228 18.095 28.8645 18.0386 28.4325C17.9823 28.0005 17.8976 27.555 17.7846 27.096H12.5576V24.827H16.4961C15.1835 23.168 14.2598 21.6532 13.7251 20.2825C13.1905 18.9122 12.9231 17.5295 12.9231 16.1345C12.9231 13.3038 13.9046 10.9072 15.8676 8.9445C17.8303 6.9815 20.227 6 23.0576 6C25.0833 6 26.9166 6.49683 28.5576 7.4905C30.1986 8.48417 31.4358 9.82067 32.2691 11.5L30.1926 12.381C29.5283 11.1143 28.5545 10.1123 27.2711 9.375C25.9878 8.638 24.5833 8.2695 23.0576 8.2695C20.8886 8.2695 19.0355 9.03283 17.4981 10.5595C15.9611 12.0865 15.1926 13.9448 15.1926 16.1345C15.1926 17.4475 15.4848 18.7322 16.0691 19.9885C16.6538 21.2448 17.7461 22.8577 19.3461 24.827H27.5576V27.096H20.1041C20.2168 27.5423 20.293 27.995 20.3326 28.454C20.3726 28.913 20.3926 29.3642 20.3926 29.8075C20.3926 31.5485 19.9708 33.1857 19.1271 34.719C18.2835 36.2523 17.2013 37.5895 15.8806 38.7305H28.0576C29.363 38.7305 30.4893 38.4197 31.4366 37.798C32.3839 37.1763 33.0871 36.186 33.5461 34.827L35.4926 35.8C35.0336 37.4973 34.0861 38.7883 32.6501 39.673C31.2141 40.5577 29.6833 41 28.0576 41H12.5576Z" fill="#40D7D0"/>
<path d="M12.5576 41V38.377C13.5143 37.7667 14.3393 37.1268 15.0326 36.4575C15.7263 35.7885 16.304 35.0937 16.7656 34.373C17.227 33.6527 17.5686 32.9078 17.7906 32.1385C18.0123 31.3692 18.1231 30.5922 18.1231 29.8075C18.1231 29.3228 18.095 28.8645 18.0386 28.4325C17.9823 28.0005 17.8976 27.555 17.7846 27.096H12.5576V24.827H16.4961C15.1835 23.168 14.2598 21.6532 13.7251 20.2825C13.1905 18.9122 12.9231 17.5295 12.9231 16.1345C12.9231 13.3038 13.9046 10.9072 15.8676 8.9445C17.8303 6.9815 20.227 6 23.0576 6C25.0833 6 26.9166 6.49683 28.5576 7.4905C30.1986 8.48417 31.4358 9.82067 32.2691 11.5L30.1926 12.381C29.5283 11.1143 28.5545 10.1123 27.2711 9.375C25.9878 8.638 24.5833 8.2695 23.0576 8.2695C20.8886 8.2695 19.0355 9.03283 17.4981 10.5595C15.9611 12.0865 15.1926 13.9448 15.1926 16.1345C15.1926 17.4475 15.4848 18.7322 16.0691 19.9885C16.6538 21.2448 17.7461 22.8577 19.3461 24.827H27.5576V27.096H20.1041C20.2168 27.5423 20.293 27.995 20.3326 28.454C20.3726 28.913 20.3926 29.3642 20.3926 29.8075C20.3926 31.5485 19.9708 33.1857 19.1271 34.719C18.2835 36.2523 17.2013 37.5895 15.8806 38.7305H28.0576C29.363 38.7305 30.4893 38.4197 31.4366 37.798C32.3839 37.1763 33.0871 36.186 33.5461 34.827L35.4926 35.8C35.0336 37.4973 34.0861 38.7883 32.6501 39.673C31.2141 40.5577 29.6833 41 28.0576 41H12.5576Z" fill="black" fill-opacity="0.2"/>
</g>
</svg>
