<svg width="24" height="24" viewBox="0 0 24 24" fill="none" xmlns="http://www.w3.org/2000/svg">
<mask id="mask0_300_2609" style="mask-type:alpha" maskUnits="userSpaceOnUse" x="0" y="0" width="24" height="24">
<rect width="24" height="24" fill="#D9D9D9"/>
</mask>
<g mask="url(#mask0_300_2609)">
<path d="M3.5 7.9905H20.5V16.7885C20.5 17.5417 20.2363 18.1818 19.709 18.709C19.1818 19.2363 18.5417 19.5 17.7885 19.5H6.2115C5.45833 19.5 4.81817 19.2363 4.291 18.709C3.76367 18.1818 3.5 17.5417 3.5 16.7885V7.9905ZM5 9.49025V16.7885C5 17.1317 5.11608 17.4194 5.34825 17.6518C5.58058 17.8839 5.86833 18 6.2115 18H17.7885C18.1317 18 18.4194 17.8839 18.6518 17.6518C18.8839 17.4194 19 17.1317 19 16.7885V9.49025H5ZM3.5 6.798V5.298H9.25V4.4135C9.25 4.15467 9.33625 3.93775 9.50875 3.76275C9.68108 3.58758 9.89767 3.5 10.1585 3.5H13.8415C14.1023 3.5 14.3189 3.58758 14.4913 3.76275C14.6638 3.93775 14.75 4.15467 14.75 4.4135V5.298H20.5V6.798H3.5Z" fill="#40D7D0"/>
<path d="M3.5 7.9905H20.5V16.7885C20.5 17.5417 20.2363 18.1818 19.709 18.709C19.1818 19.2363 18.5417 19.5 17.7885 19.5H6.2115C5.45833 19.5 4.81817 19.2363 4.291 18.709C3.76367 18.1818 3.5 17.5417 3.5 16.7885V7.9905ZM5 9.49025V16.7885C5 17.1317 5.11608 17.4194 5.34825 17.6518C5.58058 17.8839 5.86833 18 6.2115 18H17.7885C18.1317 18 18.4194 17.8839 18.6518 17.6518C18.8839 17.4194 19 17.1317 19 16.7885V9.49025H5ZM3.5 6.798V5.298H9.25V4.4135C9.25 4.15467 9.33625 3.93775 9.50875 3.76275C9.68108 3.58758 9.89767 3.5 10.1585 3.5H13.8415C14.1023 3.5 14.3189 3.58758 14.4913 3.76275C14.6638 3.93775 14.75 4.15467 14.75 4.4135V5.298H20.5V6.798H3.5Z" fill="black" fill-opacity="0.2"/>
</g>
</svg>
