<svg width="24" height="24" viewBox="0 0 24 24" fill="none" xmlns="http://www.w3.org/2000/svg">
<mask id="mask0_300_2618" style="mask-type:alpha" maskUnits="userSpaceOnUse" x="0" y="0" width="24" height="24">
<rect width="24" height="24" fill="#D9D9D9"/>
</mask>
<g mask="url(#mask0_300_2618)">
<path d="M5.30775 21.5C4.80258 21.5 4.375 21.325 4.025 20.975C3.675 20.625 3.5 20.1974 3.5 19.6923V6.30775C3.5 5.80259 3.675 5.375 4.025 5.025C4.375 4.675 4.80258 4.50001 5.30775 4.50001H8.44225L12 0.942505L15.5577 4.50001H18.6923C19.1974 4.50001 19.625 4.675 19.975 5.025C20.325 5.375 20.5 5.80259 20.5 6.30775V19.6923C20.5 20.1974 20.325 20.625 19.975 20.975C19.625 21.325 19.1974 21.5 18.6923 21.5H5.30775ZM5.30775 20H18.6923C18.7692 20 18.8398 19.9679 18.9038 19.9038C18.9679 19.8398 19 19.7693 19 19.6923V6.30775C19 6.23075 18.9679 6.16025 18.9038 6.09625C18.8398 6.03209 18.7692 6.00001 18.6923 6.00001H5.30775C5.23075 6.00001 5.16025 6.03209 5.09625 6.09625C5.03208 6.16025 5 6.23075 5 6.30775V19.6923C5 19.7693 5.03208 19.8398 5.09625 19.9038C5.16025 19.9679 5.23075 20 5.30775 20ZM6.75 17.75H17.3268L14.0385 13.3655L11.2308 17.0193L9.23075 14.4615L6.75 17.75ZM10.1192 4.50001H13.8807L12 2.61926L10.1192 4.50001Z" fill="#40D7D0"/>
<path d="M5.30775 21.5C4.80258 21.5 4.375 21.325 4.025 20.975C3.675 20.625 3.5 20.1974 3.5 19.6923V6.30775C3.5 5.80259 3.675 5.375 4.025 5.025C4.375 4.675 4.80258 4.50001 5.30775 4.50001H8.44225L12 0.942505L15.5577 4.50001H18.6923C19.1974 4.50001 19.625 4.675 19.975 5.025C20.325 5.375 20.5 5.80259 20.5 6.30775V19.6923C20.5 20.1974 20.325 20.625 19.975 20.975C19.625 21.325 19.1974 21.5 18.6923 21.5H5.30775ZM5.30775 20H18.6923C18.7692 20 18.8398 19.9679 18.9038 19.9038C18.9679 19.8398 19 19.7693 19 19.6923V6.30775C19 6.23075 18.9679 6.16025 18.9038 6.09625C18.8398 6.03209 18.7692 6.00001 18.6923 6.00001H5.30775C5.23075 6.00001 5.16025 6.03209 5.09625 6.09625C5.03208 6.16025 5 6.23075 5 6.30775V19.6923C5 19.7693 5.03208 19.8398 5.09625 19.9038C5.16025 19.9679 5.23075 20 5.30775 20ZM6.75 17.75H17.3268L14.0385 13.3655L11.2308 17.0193L9.23075 14.4615L6.75 17.75ZM10.1192 4.50001H13.8807L12 2.61926L10.1192 4.50001Z" fill="black" fill-opacity="0.2"/>
</g>
</svg>
