<svg width="24" height="24" preserveAspectRatio="xMidYMid meet" viewBox="0 0 19 19" fill="none" xmlns="http://www.w3.org/2000/svg">
<g id="bathtub">
<path d="M3.31825 6.51775C2.97792 6.17692 2.80775 5.76717 2.80775 5.2885C2.80775 4.80467 2.97792 4.39042 3.31825 4.04575C3.65858 3.70125 4.07175 3.529 4.55775 3.529C5.04358 3.529 5.45667 3.70083 5.797 4.0445C6.1375 4.38817 6.30775 4.80125 6.30775 5.28375C6.30775 5.76642 6.1375 6.17792 5.797 6.51825C5.45667 6.85875 5.04358 7.029 4.55775 7.029C4.07175 7.029 3.65858 6.85858 3.31825 6.51775ZM2.80775 19C2.52442 19 2.28692 18.9009 2.09525 18.7027C1.90358 18.5047 1.80775 18.2641 1.80775 17.9807C1.30258 17.9807 0.875 17.8018 0.525 17.444C0.175 17.0863 0 16.6563 0 16.1538V10.923H2.80775V10.1635C2.80775 9.58783 3.00675 9.09775 3.40475 8.69325C3.80292 8.28875 4.28983 8.0865 4.8655 8.0865C5.186 8.0865 5.48467 8.15483 5.7615 8.2915C6.0385 8.428 6.28725 8.61292 6.50775 8.84625L7.71525 10.2135C7.84858 10.3487 7.97775 10.4754 8.10275 10.5938C8.22775 10.7119 8.36525 10.8217 8.51525 10.923H15.5V2.61925C15.5 2.31542 15.3958 2.05292 15.1875 1.83175C14.9792 1.61058 14.7263 1.5 14.4288 1.5C14.2926 1.5 14.1621 1.52883 14.0372 1.5865C13.9124 1.64417 13.7987 1.72433 13.696 1.827L12.446 3.09125C12.5293 3.37792 12.546 3.66033 12.496 3.9385C12.446 4.21667 12.346 4.47567 12.196 4.7155L9.79225 2.2615C10.0256 2.1095 10.2756 2.01242 10.5423 1.97025C10.8089 1.92808 11.0756 1.95767 11.3422 2.059L12.5922 0.79225C12.8371 0.54375 13.1164 0.349584 13.4303 0.20975C13.7439 0.069917 14.0768 0 14.4288 0C15.1506 0 15.7596 0.254167 16.2558 0.7625C16.7519 1.27083 17 1.88975 17 2.61925V10.923H19V16.1538C19 16.6563 18.825 17.0863 18.475 17.444C18.125 17.8018 17.6974 17.9807 17.1923 17.9807C17.1923 18.2641 17.0964 18.5047 16.9048 18.7027C16.7131 18.9009 16.4756 19 16.1923 19H2.80775ZM1.80775 16.4807H17.1923C17.2821 16.4807 17.3558 16.4487 17.4135 16.3845C17.4712 16.3205 17.5 16.2436 17.5 16.1538V12.423H1.5V16.1538C1.5 16.2436 1.52883 16.3205 1.5865 16.3845C1.64417 16.4487 1.71792 16.4807 1.80775 16.4807ZM1.80775 16.4807H1.5H17.5H1.80775Z" fill="#40D7D0"/>
<path d="M3.31825 6.51775C2.97792 6.17692 2.80775 5.76717 2.80775 5.2885C2.80775 4.80467 2.97792 4.39042 3.31825 4.04575C3.65858 3.70125 4.07175 3.529 4.55775 3.529C5.04358 3.529 5.45667 3.70083 5.797 4.0445C6.1375 4.38817 6.30775 4.80125 6.30775 5.28375C6.30775 5.76642 6.1375 6.17792 5.797 6.51825C5.45667 6.85875 5.04358 7.029 4.55775 7.029C4.07175 7.029 3.65858 6.85858 3.31825 6.51775ZM2.80775 19C2.52442 19 2.28692 18.9009 2.09525 18.7027C1.90358 18.5047 1.80775 18.2641 1.80775 17.9807C1.30258 17.9807 0.875 17.8018 0.525 17.444C0.175 17.0863 0 16.6563 0 16.1538V10.923H2.80775V10.1635C2.80775 9.58783 3.00675 9.09775 3.40475 8.69325C3.80292 8.28875 4.28983 8.0865 4.8655 8.0865C5.186 8.0865 5.48467 8.15483 5.7615 8.2915C6.0385 8.428 6.28725 8.61292 6.50775 8.84625L7.71525 10.2135C7.84858 10.3487 7.97775 10.4754 8.10275 10.5938C8.22775 10.7119 8.36525 10.8217 8.51525 10.923H15.5V2.61925C15.5 2.31542 15.3958 2.05292 15.1875 1.83175C14.9792 1.61058 14.7263 1.5 14.4288 1.5C14.2926 1.5 14.1621 1.52883 14.0372 1.5865C13.9124 1.64417 13.7987 1.72433 13.696 1.827L12.446 3.09125C12.5293 3.37792 12.546 3.66033 12.496 3.9385C12.446 4.21667 12.346 4.47567 12.196 4.7155L9.79225 2.2615C10.0256 2.1095 10.2756 2.01242 10.5423 1.97025C10.8089 1.92808 11.0756 1.95767 11.3422 2.059L12.5922 0.79225C12.8371 0.54375 13.1164 0.349584 13.4303 0.20975C13.7439 0.069917 14.0768 0 14.4288 0C15.1506 0 15.7596 0.254167 16.2558 0.7625C16.7519 1.27083 17 1.88975 17 2.61925V10.923H19V16.1538C19 16.6563 18.825 17.0863 18.475 17.444C18.125 17.8018 17.6974 17.9807 17.1923 17.9807C17.1923 18.2641 17.0964 18.5047 16.9048 18.7027C16.7131 18.9009 16.4756 19 16.1923 19H2.80775ZM1.80775 16.4807H17.1923C17.2821 16.4807 17.3558 16.4487 17.4135 16.3845C17.4712 16.3205 17.5 16.2436 17.5 16.1538V12.423H1.5V16.1538C1.5 16.2436 1.52883 16.3205 1.5865 16.3845C1.64417 16.4487 1.71792 16.4807 1.80775 16.4807ZM1.80775 16.4807H1.5H17.5H1.80775Z" fill="black" fill-opacity="0.2"/>
</g>
</svg>
