<svg preserveAspectRatio="none" overflow="visible" style="display: block;" width="27.0833" height="39.8958" viewBox="0 0 27.0833 39.8958" fill="none" xmlns="http://www.w3.org/2000/svg">
<g id="air_freshener">
<path d="M12.5 9.60938C12.2222 9.31424 12.0833 8.96701 12.0833 8.56771C12.0833 8.1684 12.2222 7.82986 12.5 7.55208C12.7778 7.27431 13.125 7.13542 13.5417 7.13542C13.9583 7.13542 14.3056 7.27431 14.5833 7.55208C14.8611 7.82986 15 8.1684 15 8.56771C15 8.96701 14.8611 9.31424 14.5833 9.60938C14.3056 9.90451 13.9583 10.0521 13.5417 10.0521C13.125 10.0521 12.7778 9.90451 12.5 9.60938ZM12.5 2.52604C12.2222 2.2309 12.0833 1.88368 12.0833 1.48438C12.0833 1.08507 12.2222 0.737847 12.5 0.442708C12.7778 0.147569 13.125 0 13.5417 0C13.9583 0 14.3056 0.147569 14.5833 0.442708C14.8611 0.737847 15 1.08507 15 1.48438C15 1.88368 14.8611 2.2309 14.5833 2.52604C14.3056 2.82118 13.9583 2.96875 13.5417 2.96875C13.125 2.96875 12.7778 2.82118 12.5 2.52604ZM7.70833 39.8958C6.18056 38.9583 4.99132 37.6997 4.14063 36.1198C3.28993 34.5399 2.84722 32.8299 2.8125 30.9896C2.84722 28.8368 3.4809 26.8924 4.71354 25.1562C5.94618 23.4201 7.53472 22.0833 9.47917 21.1458V15.7292C9.47917 15.5556 9.53125 15.4167 9.63542 15.3125C9.73958 15.2083 9.87847 15.1562 10.0521 15.1562H17.0313C17.2049 15.1562 17.3438 15.2083 17.4479 15.3125C17.5521 15.4167 17.6042 15.5556 17.6042 15.7292V21.1458C19.5486 22.0833 21.1372 23.4201 22.3698 25.1562C23.6024 26.8924 24.2361 28.8368 24.2708 30.9896C24.2361 32.8299 23.7934 34.5313 22.9427 36.0938C22.092 37.6563 20.9028 38.9236 19.375 39.8958H7.70833ZM8.02083 38.75H19.0625C20.3125 37.8125 21.3021 36.6753 22.0313 35.3385C22.7604 34.0017 23.125 32.5521 23.125 30.9896C23.125 29.184 22.6389 27.5174 21.6667 25.9896C20.6944 24.4618 19.3924 23.2986 17.7604 22.5L16.4583 21.875V16.3021H10.625V21.875L9.32292 22.5C7.69097 23.2986 6.38889 24.4618 5.41667 25.9896C4.44445 27.5174 3.95833 29.184 3.95833 30.9896C3.95833 32.5521 4.32292 34.0017 5.05208 35.3385C5.78125 36.6753 6.77083 37.8125 8.02083 38.75ZM1.45833 5.05208C1.04167 5.05208 0.694445 4.90451 0.416667 4.60938C0.138889 4.31424 0 3.95833 0 3.54167C0 3.15972 0.138889 2.82118 0.416667 2.52604C0.694445 2.2309 1.04167 2.08333 1.45833 2.08333C1.875 2.08333 2.22222 2.2309 2.5 2.52604C2.77778 2.82118 2.91667 3.1684 2.91667 3.56771C2.91667 3.96701 2.77778 4.31424 2.5 4.60938C2.22222 4.90451 1.875 5.05208 1.45833 5.05208ZM24.5833 4.60938C24.3056 4.31424 24.1667 3.96701 24.1667 3.56771C24.1667 3.1684 24.3056 2.82118 24.5833 2.52604C24.8611 2.2309 25.2083 2.08333 25.625 2.08333C26.0417 2.08333 26.3889 2.2309 26.6667 2.52604C26.9444 2.82118 27.0833 3.1684 27.0833 3.56771C27.0833 3.96701 26.9444 4.31424 26.6667 4.60938C26.3889 4.90451 26.0417 5.05208 25.625 5.05208C25.2083 5.05208 24.8611 4.90451 24.5833 4.60938ZM5.41667 9.60938C5.13889 9.31424 5 8.96701 5 8.56771C5 8.1684 5.13889 7.82986 5.41667 7.55208C5.69445 7.27431 6.04167 7.13542 6.45833 7.13542C6.875 7.13542 7.22222 7.27431 7.5 7.55208C7.77778 7.82986 7.91667 8.1684 7.91667 8.56771C7.91667 8.96701 7.77778 9.31424 7.5 9.60938C7.22222 9.90451 6.875 10.0521 6.45833 10.0521C6.04167 10.0521 5.69445 9.90451 5.41667 9.60938ZM19.5833 9.60938C19.3056 9.31424 19.1667 8.96701 19.1667 8.56771C19.1667 8.1684 19.3056 7.82986 19.5833 7.55208C19.8611 7.27431 20.2083 7.13542 20.625 7.13542C21.0417 7.13542 21.3889 7.27431 21.6667 7.55208C21.9444 7.82986 22.0833 8.1684 22.0833 8.56771C22.0833 8.96701 21.9444 9.31424 21.6667 9.60938C21.3889 9.90451 21.0417 10.0521 20.625 10.0521C20.2083 10.0521 19.8611 9.90451 19.5833 9.60938Z" fill="#40D7D0"/>
<path d="M12.5 9.60938C12.2222 9.31424 12.0833 8.96701 12.0833 8.56771C12.0833 8.1684 12.2222 7.82986 12.5 7.55208C12.7778 7.27431 13.125 7.13542 13.5417 7.13542C13.9583 7.13542 14.3056 7.27431 14.5833 7.55208C14.8611 7.82986 15 8.1684 15 8.56771C15 8.96701 14.8611 9.31424 14.5833 9.60938C14.3056 9.90451 13.9583 10.0521 13.5417 10.0521C13.125 10.0521 12.7778 9.90451 12.5 9.60938ZM12.5 2.52604C12.2222 2.2309 12.0833 1.88368 12.0833 1.48438C12.0833 1.08507 12.2222 0.737847 12.5 0.442708C12.7778 0.147569 13.125 0 13.5417 0C13.9583 0 14.3056 0.147569 14.5833 0.442708C14.8611 0.737847 15 1.08507 15 1.48438C15 1.88368 14.8611 2.2309 14.5833 2.52604C14.3056 2.82118 13.9583 2.96875 13.5417 2.96875C13.125 2.96875 12.7778 2.82118 12.5 2.52604ZM7.70833 39.8958C6.18056 38.9583 4.99132 37.6997 4.14063 36.1198C3.28993 34.5399 2.84722 32.8299 2.8125 30.9896C2.84722 28.8368 3.4809 26.8924 4.71354 25.1562C5.94618 23.4201 7.53472 22.0833 9.47917 21.1458V15.7292C9.47917 15.5556 9.53125 15.4167 9.63542 15.3125C9.73958 15.2083 9.87847 15.1562 10.0521 15.1562H17.0313C17.2049 15.1562 17.3438 15.2083 17.4479 15.3125C17.5521 15.4167 17.6042 15.5556 17.6042 15.7292V21.1458C19.5486 22.0833 21.1372 23.4201 22.3698 25.1562C23.6024 26.8924 24.2361 28.8368 24.2708 30.9896C24.2361 32.8299 23.7934 34.5313 22.9427 36.0938C22.092 37.6563 20.9028 38.9236 19.375 39.8958H7.70833ZM8.02083 38.75H19.0625C20.3125 37.8125 21.3021 36.6753 22.0313 35.3385C22.7604 34.0017 23.125 32.5521 23.125 30.9896C23.125 29.184 22.6389 27.5174 21.6667 25.9896C20.6944 24.4618 19.3924 23.2986 17.7604 22.5L16.4583 21.875V16.3021H10.625V21.875L9.32292 22.5C7.69097 23.2986 6.38889 24.4618 5.41667 25.9896C4.44445 27.5174 3.95833 29.184 3.95833 30.9896C3.95833 32.5521 4.32292 34.0017 5.05208 35.3385C5.78125 36.6753 6.77083 37.8125 8.02083 38.75ZM1.45833 5.05208C1.04167 5.05208 0.694445 4.90451 0.416667 4.60938C0.138889 4.31424 0 3.95833 0 3.54167C0 3.15972 0.138889 2.82118 0.416667 2.52604C0.694445 2.2309 1.04167 2.08333 1.45833 2.08333C1.875 2.08333 2.22222 2.2309 2.5 2.52604C2.77778 2.82118 2.91667 3.1684 2.91667 3.56771C2.91667 3.96701 2.77778 4.31424 2.5 4.60938C2.22222 4.90451 1.875 5.05208 1.45833 5.05208ZM24.5833 4.60938C24.3056 4.31424 24.1667 3.96701 24.1667 3.56771C24.1667 3.1684 24.3056 2.82118 24.5833 2.52604C24.8611 2.2309 25.2083 2.08333 25.625 2.08333C26.0417 2.08333 26.3889 2.2309 26.6667 2.52604C26.9444 2.82118 27.0833 3.1684 27.0833 3.56771C27.0833 3.96701 26.9444 4.31424 26.6667 4.60938C26.3889 4.90451 26.0417 5.05208 25.625 5.05208C25.2083 5.05208 24.8611 4.90451 24.5833 4.60938ZM5.41667 9.60938C5.13889 9.31424 5 8.96701 5 8.56771C5 8.1684 5.13889 7.82986 5.41667 7.55208C5.69445 7.27431 6.04167 7.13542 6.45833 7.13542C6.875 7.13542 7.22222 7.27431 7.5 7.55208C7.77778 7.82986 7.91667 8.1684 7.91667 8.56771C7.91667 8.96701 7.77778 9.31424 7.5 9.60938C7.22222 9.90451 6.875 10.0521 6.45833 10.0521C6.04167 10.0521 5.69445 9.90451 5.41667 9.60938ZM19.5833 9.60938C19.3056 9.31424 19.1667 8.96701 19.1667 8.56771C19.1667 8.1684 19.3056 7.82986 19.5833 7.55208C19.8611 7.27431 20.2083 7.13542 20.625 7.13542C21.0417 7.13542 21.3889 7.27431 21.6667 7.55208C21.9444 7.82986 22.0833 8.1684 22.0833 8.56771C22.0833 8.96701 21.9444 9.31424 21.6667 9.60938C21.3889 9.90451 21.0417 10.0521 20.625 10.0521C20.2083 10.0521 19.8611 9.90451 19.5833 9.60938Z" fill="black" fill-opacity="0.2"/>
</g>
</svg>
