<svg width="48" height="48" viewBox="0 0 48 48" fill="none" xmlns="http://www.w3.org/2000/svg" aria-hidden="true">
  <!-- workspace_premium — Figma 300:2561 / 300:2554 outline -->
  <g transform="translate(9 5)">
    <path fill="currentColor" d="M10.5195 21.977L12.223 16.5155L7.7615 13.1615H13.2345L15 7.5L16.7155 13.1615H22.2385L17.796 16.5155L19.45 21.977L15 18.6L10.5195 21.977ZM4.1425 39.4615V25.319C2.7065 23.8807 1.65717 22.2667 0.9945 20.477C0.3315 18.6873 0 16.8617 0 15C0 10.7743 1.44367 7.218 4.331 4.331C7.218 1.44367 10.7743 0 15 0C19.2257 0 22.782 1.44367 25.669 4.331C28.5563 7.218 30 10.7743 30 15C30 16.8617 29.6685 18.6873 29.0055 20.477C28.3428 22.2667 27.2935 23.8807 25.8575 25.319V39.4615L15 35.992L4.1425 39.4615ZM24.0325 24.0325C26.4978 21.5672 27.7305 18.5563 27.7305 15C27.7305 11.4437 26.4978 8.43283 24.0325 5.9675C21.5672 3.50217 18.5563 2.2695 15 2.2695C11.4437 2.2695 8.43283 3.50217 5.9675 5.9675C3.50217 8.43283 2.2695 11.4437 2.2695 15C2.2695 18.5563 3.50217 21.5672 5.9675 24.0325C8.43283 26.4978 11.4437 27.7305 15 27.7305C18.5563 27.7305 21.5672 26.4978 24.0325 24.0325ZM6.4115 36.3385L15 33.6845L23.5885 36.3385V27.192C22.3192 28.1587 20.9403 28.8683 19.452 29.321C17.9633 29.7737 16.4793 30 15 30C13.5207 30 12.0367 29.7737 10.548 29.321C9.05967 28.8683 7.68083 28.1587 6.4115 27.192V36.3385Z"/>
  </g>
</svg>
