<svg width="48" height="48" viewBox="0 0 48 48" fill="none" xmlns="http://www.w3.org/2000/svg" aria-hidden="true">
  <!-- account_circle — Figma 300:2564 / 300:2554 outline -->
  <g transform="translate(5 5)">
    <path fill="currentColor" d="M6.6 30.346C8.59733 28.9693 10.5845 27.9022 12.5615 27.1445C14.5385 26.3865 16.6847 26.0075 19 26.0075C21.3153 26.0075 23.4667 26.3865 25.454 27.1445C27.441 27.9022 29.4332 28.9693 31.4305 30.346C32.8845 28.6617 33.9647 26.8835 34.671 25.0115C35.3773 23.1398 35.7305 21.136 35.7305 19C35.7305 14.282 34.1217 10.314 30.904 7.096C27.686 3.87833 23.718 2.2695 19 2.2695C14.282 2.2695 10.314 3.87833 7.096 7.096C3.87833 10.314 2.2695 14.282 2.2695 19C2.2695 21.136 2.62783 23.1398 3.3445 25.0115C4.06117 26.8835 5.14633 28.6617 6.6 30.346ZM14.452 18.294C13.225 17.0673 12.6115 15.5513 12.6115 13.746C12.6115 11.941 13.225 10.425 14.452 9.198C15.679 7.971 17.195 7.3575 19 7.3575C20.805 7.3575 22.321 7.971 23.548 9.198C24.775 10.425 25.3885 11.941 25.3885 13.746C25.3885 15.5513 24.775 17.0673 23.548 18.294C22.321 19.521 20.805 20.1345 19 20.1345C17.195 20.1345 15.679 19.521 14.452 18.294ZM19 38C16.382 38 13.9205 37.5038 11.6155 36.5115C9.31017 35.5192 7.29417 34.1595 5.5675 32.4325C3.8405 30.7058 2.48083 28.6898 1.4885 26.3845C0.496167 24.0795 0 21.618 0 19C0 16.3617 0.496167 13.895 1.4885 11.6C2.48083 9.305 3.8405 7.29417 5.5675 5.5675C7.29417 3.8405 9.31017 2.48083 11.6155 1.4885C13.9205 0.496168 16.382 0 19 0C21.6383 0 24.105 0.496168 26.4 1.4885C28.695 2.48083 30.7058 3.8405 32.4325 5.5675C34.1595 7.29417 35.5192 9.305 36.5115 11.6C37.5038 13.895 38 16.3617 38 19C38 21.618 37.5038 24.0795 36.5115 26.3845C35.5192 28.6898 34.1595 30.7058 32.4325 32.4325C30.7058 34.1595 28.695 35.5192 26.4 36.5115C24.105 37.5038 21.6383 38 19 38ZM24.5 34.844C26.3077 34.253 28.0102 33.2973 29.6075 31.977C28.0102 30.8027 26.3185 29.8923 24.5325 29.246C22.7468 28.6 20.9027 28.277 19 28.277C17.0973 28.277 15.2498 28.5968 13.4575 29.2365C11.6652 29.8762 9.98317 30.7897 8.4115 31.977C9.99617 33.2973 11.6923 34.253 13.5 34.844C15.3077 35.435 17.141 35.7305 19 35.7305C20.859 35.7305 22.6923 35.435 24.5 34.844ZM21.9575 16.704C22.7322 15.9297 23.1195 14.9437 23.1195 13.746C23.1195 12.5487 22.7322 11.5628 21.9575 10.7885C21.1832 10.0142 20.1973 9.627 19 9.627C17.8027 9.627 16.8168 10.0142 16.0425 10.7885C15.2678 11.5628 14.8805 12.5487 14.8805 13.746C14.8805 14.9437 15.2678 15.9297 16.0425 16.704C16.8168 17.4783 17.8027 17.8655 19 17.8655C20.1973 17.8655 21.1832 17.4783 21.9575 16.704Z"/>
  </g>
</svg>
