<svg width="48" height="48" viewBox="0 0 48 48" fill="none" xmlns="http://www.w3.org/2000/svg" aria-hidden="true">
  <!-- calendar_check — Figma 300:2558 / 300:2554 outline -->
  <g transform="translate(7 4.77)">
    <path fill="currentColor" d="M2.8845 38.2305C2.10017 38.2305 1.42333 37.9458 0.854 37.3765C0.284667 36.8072 0 36.1303 0 35.346V6.3845C0 5.60017 0.284667 4.92333 0.854 4.354C1.42333 3.78466 2.10017 3.5 2.8845 3.5H6.577V0H9.096V3.5H24.9805V0H27.442V3.5H31.1155C31.8998 3.5 32.5767 3.78466 33.146 4.354C33.7153 4.92333 34 5.60017 34 6.3845V23.2535L31.7305 25.5225V15.4805H2.2695V35.346C2.2695 35.4997 2.3335 35.6407 2.4615 35.769C2.58983 35.897 2.73083 35.961 2.8845 35.961H17.927L20.2155 38.2305H2.8845ZM2.2695 13.2115H31.7305V6.3845C31.7305 6.2305 31.6665 6.0895 31.5385 5.9615C31.4102 5.83317 31.2692 5.769 31.1155 5.769H2.8845C2.73083 5.769 2.58983 5.83317 2.4615 5.9615C2.3335 6.0895 2.2695 6.2305 2.2695 6.3845V13.2115ZM26.3885 39.2305L20.5425 33.4035L22.123 31.7535L26.3885 36.019L34.8885 27.538L36.519 29.119L26.3885 39.2305Z"/>
  </g>
</svg>
