<svg preserveAspectRatio="xMidYMid meet" overflow="visible" width="32.0833" height="32.0833" viewBox="0 0 32.0833 32.0833" fill="none" xmlns="http://www.w3.org/2000/svg">
<g id="dishwasher">
<path d="M1.14583 11.6667V29.2708C1.14583 29.6875 1.31944 30.0694 1.66667 30.4167C2.01389 30.7639 2.39583 30.9375 2.8125 30.9375H29.2708C29.6875 30.9375 30.0694 30.7639 30.4167 30.4167C30.7639 30.0694 30.9375 29.6875 30.9375 29.2708V11.6667H1.14583ZM1.14583 10.5208H30.9375V2.8125C30.9375 2.39583 30.7639 2.01389 30.4167 1.66667C30.0694 1.31944 29.6875 1.14583 29.2708 1.14583H2.8125C2.39583 1.14583 2.01389 1.31944 1.66667 1.66667C1.31944 2.01389 1.14583 2.39583 1.14583 2.8125V10.5208ZM16.0328 26.7708C15.2748 26.7708 14.6441 26.5083 14.1406 25.9833C13.6372 25.4583 13.3854 24.8007 13.3854 24.0104C13.3854 23.2118 13.6458 22.2917 14.1667 21.25C14.6875 20.2083 15.3125 19.3229 16.0417 18.5938C16.7708 19.3924 17.3958 20.2951 17.9167 21.3021C18.4375 22.309 18.6979 23.2118 18.6979 24.0104C18.6979 24.8007 18.4432 25.4583 17.9339 25.9833C17.4245 26.5083 16.7908 26.7708 16.0328 26.7708ZM27.7083 6.25C27.9514 6.00694 28.0729 5.69444 28.0729 5.3125C28.0729 4.93056 27.9514 4.61806 27.7083 4.375C27.4653 4.13195 27.1528 4.01042 26.7708 4.01042C26.3889 4.01042 26.0764 4.13195 25.8333 4.375C25.5903 4.61806 25.4688 4.93056 25.4688 5.3125C25.4688 5.69444 25.5903 6.00694 25.8333 6.25C26.0764 6.49306 26.3889 6.61458 26.7708 6.61458C27.1528 6.61458 27.4653 6.49306 27.7083 6.25ZM2.8125 32.0833C2.02188 32.0833 1.35538 31.8123 0.813021 31.2703C0.271007 30.728 0 30.0615 0 29.2708V2.8125C0 2.02153 0.271007 1.35503 0.813021 0.81302C1.35538 0.271006 2.02188 0 2.8125 0H29.2708C30.0618 0 30.7283 0.271006 31.2703 0.81302C31.8123 1.35503 32.0833 2.02153 32.0833 2.8125V29.2708C32.0833 30.0615 31.8123 30.728 31.2703 31.2703C30.7283 31.8123 30.0618 32.0833 29.2708 32.0833H2.8125Z" fill="#40D7D0"/>
<path d="M1.14583 11.6667V29.2708C1.14583 29.6875 1.31944 30.0694 1.66667 30.4167C2.01389 30.7639 2.39583 30.9375 2.8125 30.9375H29.2708C29.6875 30.9375 30.0694 30.7639 30.4167 30.4167C30.7639 30.0694 30.9375 29.6875 30.9375 29.2708V11.6667H1.14583ZM1.14583 10.5208H30.9375V2.8125C30.9375 2.39583 30.7639 2.01389 30.4167 1.66667C30.0694 1.31944 29.6875 1.14583 29.2708 1.14583H2.8125C2.39583 1.14583 2.01389 1.31944 1.66667 1.66667C1.31944 2.01389 1.14583 2.39583 1.14583 2.8125V10.5208ZM16.0328 26.7708C15.2748 26.7708 14.6441 26.5083 14.1406 25.9833C13.6372 25.4583 13.3854 24.8007 13.3854 24.0104C13.3854 23.2118 13.6458 22.2917 14.1667 21.25C14.6875 20.2083 15.3125 19.3229 16.0417 18.5938C16.7708 19.3924 17.3958 20.2951 17.9167 21.3021C18.4375 22.309 18.6979 23.2118 18.6979 24.0104C18.6979 24.8007 18.4432 25.4583 17.9339 25.9833C17.4245 26.5083 16.7908 26.7708 16.0328 26.7708ZM27.7083 6.25C27.9514 6.00694 28.0729 5.69444 28.0729 5.3125C28.0729 4.93056 27.9514 4.61806 27.7083 4.375C27.4653 4.13195 27.1528 4.01042 26.7708 4.01042C26.3889 4.01042 26.0764 4.13195 25.8333 4.375C25.5903 4.61806 25.4688 4.93056 25.4688 5.3125C25.4688 5.69444 25.5903 6.00694 25.8333 6.25C26.0764 6.49306 26.3889 6.61458 26.7708 6.61458C27.1528 6.61458 27.4653 6.49306 27.7083 6.25ZM2.8125 32.0833C2.02188 32.0833 1.35538 31.8123 0.813021 31.2703C0.271007 30.728 0 30.0615 0 29.2708V2.8125C0 2.02153 0.271007 1.35503 0.813021 0.81302C1.35538 0.271006 2.02188 0 2.8125 0H29.2708C30.0618 0 30.7283 0.271006 31.2703 0.81302C31.8123 1.35503 32.0833 2.02153 32.0833 2.8125V29.2708C32.0833 30.0615 31.8123 30.728 31.2703 31.2703C30.7283 31.8123 30.0618 32.0833 29.2708 32.0833H2.8125Z" fill="black" fill-opacity="0.2"/>
</g>
</svg>
