<svg width="24" height="24" preserveAspectRatio="xMidYMid meet" viewBox="0 0 19 12.5" fill="none" xmlns="http://www.w3.org/2000/svg">
<g id="king_bed">
<path d="M2.3845 12.5H1.6155L1.1 10.5H0V6.29225C0 5.79358 0.176583 5.37025 0.52975 5.02225C0.883083 4.67408 1.30908 4.5 1.80775 4.5H2V1.80775C2 1.30908 2.17658 0.883167 2.52975 0.53C2.88308 0.176667 3.30908 0 3.80775 0H15.1923C15.6909 0 16.1169 0.176667 16.4703 0.53C16.8234 0.883167 17 1.30908 17 1.80775V4.5H17.1923C17.6909 4.5 18.1169 4.67658 18.4703 5.02975C18.8234 5.38308 19 5.80908 19 6.30775V10.5H17.9L17.3845 12.5H16.6155L16.1 10.5H2.9L2.3845 12.5ZM10.25 4.5H15.5V1.80775C15.5 1.71808 15.4712 1.64433 15.4135 1.5865C15.3558 1.52883 15.2821 1.5 15.1923 1.5H10.25V4.5ZM3.5 4.5H8.75V1.5H3.80775C3.71792 1.5 3.64417 1.52883 3.5865 1.5865C3.52883 1.64433 3.5 1.71808 3.5 1.80775V4.5ZM1.5 9H17.5V6.30775C17.5 6.21792 17.4712 6.14417 17.4135 6.0865C17.3558 6.02883 17.2821 6 17.1923 6H1.80775C1.71792 6 1.64417 6.02883 1.5865 6.0865C1.52883 6.14417 1.5 6.21792 1.5 6.30775V9Z" fill="#40D7D0"/>
<path d="M2.3845 12.5H1.6155L1.1 10.5H0V6.29225C0 5.79358 0.176583 5.37025 0.52975 5.02225C0.883083 4.67408 1.30908 4.5 1.80775 4.5H2V1.80775C2 1.30908 2.17658 0.883167 2.52975 0.53C2.88308 0.176667 3.30908 0 3.80775 0H15.1923C15.6909 0 16.1169 0.176667 16.4703 0.53C16.8234 0.883167 17 1.30908 17 1.80775V4.5H17.1923C17.6909 4.5 18.1169 4.67658 18.4703 5.02975C18.8234 5.38308 19 5.80908 19 6.30775V10.5H17.9L17.3845 12.5H16.6155L16.1 10.5H2.9L2.3845 12.5ZM10.25 4.5H15.5V1.80775C15.5 1.71808 15.4712 1.64433 15.4135 1.5865C15.3558 1.52883 15.2821 1.5 15.1923 1.5H10.25V4.5ZM3.5 4.5H8.75V1.5H3.80775C3.71792 1.5 3.64417 1.52883 3.5865 1.5865C3.52883 1.64433 3.5 1.71808 3.5 1.80775V4.5ZM1.5 9H17.5V6.30775C17.5 6.21792 17.4712 6.14417 17.4135 6.0865C17.3558 6.02883 17.2821 6 17.1923 6H1.80775C1.71792 6 1.64417 6.02883 1.5865 6.0865C1.52883 6.14417 1.5 6.21792 1.5 6.30775V9Z" fill="black" fill-opacity="0.2"/>
</g>
</svg>
