<svg width="48" height="48" viewBox="0 0 48 48" fill="none" xmlns="http://www.w3.org/2000/svg">
<mask id="mask0_300_2588" style="mask-type:alpha" maskUnits="userSpaceOnUse" x="0" y="0" width="48" height="48">
<rect width="48" height="48" fill="#D9D9D9"/>
</mask>
<g mask="url(#mask0_300_2588)">
<path d="M21.8155 29.5H26.1845L24.9925 22.596C25.6205 22.3473 26.1313 21.957 26.525 21.425C26.9187 20.893 27.1155 20.2962 27.1155 19.6345C27.1155 18.7705 26.8122 18.0353 26.2055 17.429C25.5992 16.8227 24.864 16.5195 24 16.5195C23.136 16.5195 22.4008 16.8227 21.7945 17.429C21.1878 18.0353 20.8845 18.7705 20.8845 19.6345C20.8845 20.2962 21.0813 20.893 21.475 21.425C21.8687 21.957 22.3795 22.3473 23.0075 22.596L21.8155 29.5ZM24 42.9305C19.654 41.7382 16.0675 39.1517 13.2405 35.171C10.4135 31.1903 9 26.782 9 21.946V10.6615L24 5.046L39 10.6615V21.946C39 26.782 37.5865 31.1903 34.7595 35.171C31.9325 39.1517 28.346 41.7382 24 42.9305ZM24 40.5615C27.7307 39.3462 30.7852 37.009 33.1635 33.55C35.5415 30.091 36.7305 26.223 36.7305 21.946V12.2425L24 7.4575L11.2695 12.2425V21.946C11.2695 26.223 12.4585 30.091 14.8365 33.55C17.2148 37.009 20.2693 39.3462 24 40.5615Z" fill="#40D7D0"/>
<path d="M21.8155 29.5H26.1845L24.9925 22.596C25.6205 22.3473 26.1313 21.957 26.525 21.425C26.9187 20.893 27.1155 20.2962 27.1155 19.6345C27.1155 18.7705 26.8122 18.0353 26.2055 17.429C25.5992 16.8227 24.864 16.5195 24 16.5195C23.136 16.5195 22.4008 16.8227 21.7945 17.429C21.1878 18.0353 20.8845 18.7705 20.8845 19.6345C20.8845 20.2962 21.0813 20.893 21.475 21.425C21.8687 21.957 22.3795 22.3473 23.0075 22.596L21.8155 29.5ZM24 42.9305C19.654 41.7382 16.0675 39.1517 13.2405 35.171C10.4135 31.1903 9 26.782 9 21.946V10.6615L24 5.046L39 10.6615V21.946C39 26.782 37.5865 31.1903 34.7595 35.171C31.9325 39.1517 28.346 41.7382 24 42.9305ZM24 40.5615C27.7307 39.3462 30.7852 37.009 33.1635 33.55C35.5415 30.091 36.7305 26.223 36.7305 21.946V12.2425L24 7.4575L11.2695 12.2425V21.946C11.2695 26.223 12.4585 30.091 14.8365 33.55C17.2148 37.009 20.2693 39.3462 24 40.5615Z" fill="black" fill-opacity="0.2"/>
</g>
</svg>
