<svg width="24" height="24" preserveAspectRatio="xMidYMid meet" viewBox="0 0 17 20.5575" fill="none" xmlns="http://www.w3.org/2000/svg">
<g id="hallway">
<path d="M1.80775 20.5575C1.30258 20.5575 0.875 20.3825 0.525 20.0325C0.175 19.6825 0 19.2549 0 18.7498V5.36525C0 4.86008 0.175 4.4325 0.525 4.0825C0.875 3.7325 1.30258 3.5575 1.80775 3.5575H4.94225L8.5 0L12.0577 3.5575H15.1923C15.6974 3.5575 16.125 3.7325 16.475 4.0825C16.825 4.4325 17 4.86008 17 5.36525V18.7498C17 19.2549 16.825 19.6825 16.475 20.0325C16.125 20.3825 15.6974 20.5575 15.1923 20.5575H1.80775ZM1.80775 19.0575H15.1923C15.2693 19.0575 15.3398 19.0254 15.4038 18.9613C15.4679 18.8973 15.5 18.8268 15.5 18.7498V5.36525C15.5 5.28825 15.4679 5.21775 15.4038 5.15375C15.3398 5.08958 15.2693 5.0575 15.1923 5.0575H1.80775C1.73075 5.0575 1.66025 5.08958 1.59625 5.15375C1.53208 5.21775 1.5 5.28825 1.5 5.36525V18.7498C1.5 18.8268 1.53208 18.8973 1.59625 18.9613C1.66025 19.0254 1.73075 19.0575 1.80775 19.0575ZM3.25 16.8075H13.8268L10.5385 12.423L7.73075 16.0767L5.73075 13.519L3.25 16.8075ZM6.61925 3.5575H10.3807L8.5 1.67675L6.61925 3.5575Z" fill="#40D7D0"/>
<path d="M1.80775 20.5575C1.30258 20.5575 0.875 20.3825 0.525 20.0325C0.175 19.6825 0 19.2549 0 18.7498V5.36525C0 4.86008 0.175 4.4325 0.525 4.0825C0.875 3.7325 1.30258 3.5575 1.80775 3.5575H4.94225L8.5 0L12.0577 3.5575H15.1923C15.6974 3.5575 16.125 3.7325 16.475 4.0825C16.825 4.4325 17 4.86008 17 5.36525V18.7498C17 19.2549 16.825 19.6825 16.475 20.0325C16.125 20.3825 15.6974 20.5575 15.1923 20.5575H1.80775ZM1.80775 19.0575H15.1923C15.2693 19.0575 15.3398 19.0254 15.4038 18.9613C15.4679 18.8973 15.5 18.8268 15.5 18.7498V5.36525C15.5 5.28825 15.4679 5.21775 15.4038 5.15375C15.3398 5.08958 15.2693 5.0575 15.1923 5.0575H1.80775C1.73075 5.0575 1.66025 5.08958 1.59625 5.15375C1.53208 5.21775 1.5 5.28825 1.5 5.36525V18.7498C1.5 18.8268 1.53208 18.8973 1.59625 18.9613C1.66025 19.0254 1.73075 19.0575 1.80775 19.0575ZM3.25 16.8075H13.8268L10.5385 12.423L7.73075 16.0767L5.73075 13.519L3.25 16.8075ZM6.61925 3.5575H10.3807L8.5 1.67675L6.61925 3.5575Z" fill="black" fill-opacity="0.2"/>
</g>
</svg>
