<svg width="24" height="24" preserveAspectRatio="xMidYMid meet" viewBox="0 0 21 16.0575" fill="none" xmlns="http://www.w3.org/2000/svg">
<g id="chair">
<path d="M3.519 16.0575C3.30633 16.0575 3.12825 15.9857 2.98475 15.842C2.84108 15.6982 2.76925 15.52 2.76925 15.3075V14.3075H2.5C1.80133 14.3075 1.21 14.0655 0.726 13.5815C0.242 13.0977 0 12.5063 0 11.8075V6.8075C0 6.07033 0.251583 5.46942 0.75475 5.00475C1.25808 4.53992 1.83983 4.3075 2.5 4.3075V2.5C2.5 1.80117 2.742 1.20983 3.226 0.726C3.71 0.241999 4.30133 0 5 0H16C16.6987 0 17.29 0.241999 17.774 0.726C18.258 1.20983 18.5 1.80117 18.5 2.5V4.3075C19.1858 4.3075 19.774 4.54475 20.2645 5.01925C20.7548 5.49358 21 6.08967 21 6.8075V11.8075C21 12.5063 20.758 13.0977 20.274 13.5815C19.79 14.0655 19.1987 14.3075 18.5 14.3075H18.2307V15.3075C18.2307 15.52 18.1622 15.6982 18.025 15.842C17.8878 15.9857 17.7129 16.0575 17.5002 16.0575C17.2877 16.0575 17.1096 15.9857 16.9657 15.842C16.8219 15.6982 16.75 15.52 16.75 15.3075V14.3075H4.26925V15.3075C4.26925 15.5203 4.19733 15.6986 4.0535 15.8423C3.90967 15.9858 3.7315 16.0575 3.519 16.0575ZM2.5 12.8075H18.5C18.7833 12.8075 19.0208 12.7117 19.2125 12.52C19.4042 12.3283 19.5 12.0908 19.5 11.8075V6.8075C19.5 6.52417 19.4042 6.28667 19.2125 6.095C19.0208 5.90333 18.7833 5.8075 18.5 5.8075C18.2167 5.8075 17.9792 5.90333 17.7875 6.095C17.5958 6.28667 17.5 6.52417 17.5 6.8075V10.5575H3.5V6.8075C3.5 6.52417 3.40417 6.28667 3.2125 6.095C3.02083 5.90333 2.78333 5.8075 2.5 5.8075C2.21667 5.8075 1.97917 5.90333 1.7875 6.095C1.59583 6.28667 1.5 6.52417 1.5 6.8075V11.8075C1.5 12.0908 1.59583 12.3283 1.7875 12.52C1.97917 12.7117 2.21667 12.8075 2.5 12.8075ZM5 9.0575H16V6.8075C16 6.4025 16.0917 6.03267 16.275 5.698C16.4583 5.36333 16.7 5.08317 17 4.8575V2.5C17 2.21667 16.9042 1.97917 16.7125 1.7875C16.5208 1.59583 16.2833 1.5 16 1.5H5C4.71667 1.5 4.47917 1.59583 4.2875 1.7875C4.09583 1.97917 4 2.21667 4 2.5V4.8575C4.3 5.08317 4.54167 5.36333 4.725 5.698C4.90833 6.03267 5 6.4025 5 6.8075V9.0575Z" fill="#40D7D0"/>
<path d="M3.519 16.0575C3.30633 16.0575 3.12825 15.9857 2.98475 15.842C2.84108 15.6982 2.76925 15.52 2.76925 15.3075V14.3075H2.5C1.80133 14.3075 1.21 14.0655 0.726 13.5815C0.242 13.0977 0 12.5063 0 11.8075V6.8075C0 6.07033 0.251583 5.46942 0.75475 5.00475C1.25808 4.53992 1.83983 4.3075 2.5 4.3075V2.5C2.5 1.80117 2.742 1.20983 3.226 0.726C3.71 0.241999 4.30133 0 5 0H16C16.6987 0 17.29 0.241999 17.774 0.726C18.258 1.20983 18.5 1.80117 18.5 2.5V4.3075C19.1858 4.3075 19.774 4.54475 20.2645 5.01925C20.7548 5.49358 21 6.08967 21 6.8075V11.8075C21 12.5063 20.758 13.0977 20.274 13.5815C19.79 14.0655 19.1987 14.3075 18.5 14.3075H18.2307V15.3075C18.2307 15.52 18.1622 15.6982 18.025 15.842C17.8878 15.9857 17.7129 16.0575 17.5002 16.0575C17.2877 16.0575 17.1096 15.9857 16.9657 15.842C16.8219 15.6982 16.75 15.52 16.75 15.3075V14.3075H4.26925V15.3075C4.26925 15.5203 4.19733 15.6986 4.0535 15.8423C3.90967 15.9858 3.7315 16.0575 3.519 16.0575ZM2.5 12.8075H18.5C18.7833 12.8075 19.0208 12.7117 19.2125 12.52C19.4042 12.3283 19.5 12.0908 19.5 11.8075V6.8075C19.5 6.52417 19.4042 6.28667 19.2125 6.095C19.0208 5.90333 18.7833 5.8075 18.5 5.8075C18.2167 5.8075 17.9792 5.90333 17.7875 6.095C17.5958 6.28667 17.5 6.52417 17.5 6.8075V10.5575H3.5V6.8075C3.5 6.52417 3.40417 6.28667 3.2125 6.095C3.02083 5.90333 2.78333 5.8075 2.5 5.8075C2.21667 5.8075 1.97917 5.90333 1.7875 6.095C1.59583 6.28667 1.5 6.52417 1.5 6.8075V11.8075C1.5 12.0908 1.59583 12.3283 1.7875 12.52C1.97917 12.7117 2.21667 12.8075 2.5 12.8075ZM5 9.0575H16V6.8075C16 6.4025 16.0917 6.03267 16.275 5.698C16.4583 5.36333 16.7 5.08317 17 4.8575V2.5C17 2.21667 16.9042 1.97917 16.7125 1.7875C16.5208 1.59583 16.2833 1.5 16 1.5H5C4.71667 1.5 4.47917 1.59583 4.2875 1.7875C4.09583 1.97917 4 2.21667 4 2.5V4.8575C4.3 5.08317 4.54167 5.36333 4.725 5.698C4.90833 6.03267 5 6.4025 5 6.8075V9.0575Z" fill="black" fill-opacity="0.2"/>
</g>
</svg>
