<svg width="51" height="51" viewBox="0 0 51 51" fill="none" xmlns="http://www.w3.org/2000/svg">
<g clip-path="url(#clip0_300_1347)">
<mask id="mask0_300_1347" style="mask-type:luminance" maskUnits="userSpaceOnUse" x="0" y="0" width="50" height="51">
<path d="M49.1131 20.5063L25.8176 20.4815L25.8074 30.1406L39.2165 30.1549C37.96 36.2899 32.729 39.8071 25.7972 39.7997C17.6153 39.791 11.0314 33.1931 11.0401 25.0113C11.0488 16.8295 17.6467 10.2456 25.8285 10.2543C29.3512 10.258 32.5317 11.5114 35.0295 13.5595L42.31 6.29449C37.8823 2.42615 32.203 0.0337594 25.8393 0.0270087C11.9757 0.0123019 0.827542 11.1368 0.812835 25.0005C0.798128 38.8641 11.9227 50.0123 25.7863 50.027C38.2863 50.0403 49.6596 40.9614 49.6765 25.0523C49.678 23.575 49.4524 21.9839 49.1131 20.5063Z" fill="white"/>
</mask>
<g mask="url(#mask0_300_1347)">
<path d="M-1.47714 39.771L-1.4458 10.2256L17.8567 25.0188L-1.47714 39.771Z" fill="#FBBC05"/>
</g>
<mask id="mask1_300_1347" style="mask-type:luminance" maskUnits="userSpaceOnUse" x="0" y="0" width="50" height="51">
<path d="M49.1131 20.5063L25.8176 20.4815L25.8074 30.1406L39.2165 30.1549C37.96 36.2899 32.729 39.8071 25.7972 39.7997C17.6153 39.791 11.0314 33.1931 11.0401 25.0113C11.0488 16.8295 17.6467 10.2456 25.8285 10.2543C29.3512 10.258 32.5317 11.5114 35.0295 13.5595L42.31 6.29449C37.8823 2.42615 32.203 0.0337594 25.8393 0.0270087C11.9757 0.0123019 0.827542 11.1368 0.812835 25.0005C0.798128 38.8641 11.9227 50.0123 25.7863 50.027C38.2863 50.0403 49.6596 40.9614 49.6765 25.0523C49.678 23.575 49.4524 21.9839 49.1131 20.5063Z" fill="white"/>
</mask>
<g mask="url(#mask1_300_1347)">
<path d="M-1.44539 10.2253L17.8571 25.0186L25.819 18.0952L53.0964 13.6923L53.1133 -2.2168L-1.43213 -2.27466L-1.44539 10.2253Z" fill="#EA4335"/>
</g>
<mask id="mask2_300_1347" style="mask-type:luminance" maskUnits="userSpaceOnUse" x="0" y="0" width="50" height="51">
<path d="M49.1131 20.5063L25.8176 20.4815L25.8074 30.1406L39.2165 30.1549C37.96 36.2899 32.729 39.8071 25.7972 39.7997C17.6153 39.791 11.0314 33.1931 11.0401 25.0113C11.0488 16.8295 17.6467 10.2456 25.8285 10.2543C29.3512 10.258 32.5317 11.5114 35.0295 13.5595L42.31 6.29449C37.8823 2.42615 32.203 0.0337594 25.8393 0.0270087C11.9757 0.0123019 0.827542 11.1368 0.812835 25.0005C0.798128 38.8641 11.9227 50.0123 25.7863 50.027C38.2863 50.0403 49.6596 40.9614 49.6765 25.0523C49.678 23.575 49.4524 21.9839 49.1131 20.5063Z" fill="white"/>
</mask>
<g mask="url(#mask2_300_1347)">
<path d="M-1.47673 39.7708L32.6419 13.6706L41.618 14.8165L53.1133 -2.2168L53.0555 52.3286L-1.48999 52.2708L-1.47673 39.7708Z" fill="#34A853"/>
</g>
<mask id="mask3_300_1347" style="mask-type:luminance" maskUnits="userSpaceOnUse" x="0" y="0" width="50" height="51">
<path d="M49.1131 20.5063L25.8176 20.4815L25.8074 30.1406L39.2165 30.1549C37.96 36.2899 32.729 39.8071 25.7972 39.7997C17.6153 39.791 11.0314 33.1931 11.0401 25.0113C11.0488 16.8295 17.6467 10.2456 25.8285 10.2543C29.3512 10.258 32.5317 11.5114 35.0295 13.5595L42.31 6.29449C37.8823 2.42615 32.203 0.0337594 25.8393 0.0270087C11.9757 0.0123019 0.827542 11.1368 0.812835 25.0005C0.798128 38.8641 11.9227 50.0123 25.7863 50.027C38.2863 50.0403 49.6596 40.9614 49.6765 25.0523C49.678 23.575 49.4524 21.9839 49.1131 20.5063Z" fill="white"/>
</mask>
<g mask="url(#mask3_300_1347)">
<path d="M53.0548 52.3286L17.8564 25.0185L13.3146 21.6046L53.0994 10.2832L53.0548 52.3286Z" fill="#4285F4"/>
</g>
</g>
<defs>
<clipPath id="clip0_300_1347">
<rect width="50" height="50" fill="white" transform="translate(0.0532227) rotate(0.0607803)"/>
</clipPath>
</defs>
</svg>
