<svg width="42" height="51" viewBox="0 0 42 51" fill="none" xmlns="http://www.w3.org/2000/svg">
<g clip-path="url(#clip0_300_1374)">
<path d="M20.1117 22.4095L20.1321 3.15672C20.1337 1.6448 19.0191 0.373988 17.5217 0.164026C16.1693 -0.0312446 14.4833 -0.0766462 12.6134 0.309042C9.81082 0.882732 7.69347 2.20342 6.25742 3.39883C5.02928 4.42001 4.79549 6.2176 5.73615 7.51245C9.58079 12.7889 13.4206 18.0653 17.2653 23.3417C18.1673 24.5735 20.11 23.9359 20.1117 22.4095Z" fill="#EA4335"/>
<path d="M14.5474 25.8101L3.31651 20.3175C1.80039 19.5744 0.0310992 20.6823 0.0293051 22.3735L0.0173481 33.645C0.0155283 35.3605 1.82111 36.4721 3.34368 35.6887L14.5865 29.9098C16.2638 29.049 16.2422 26.6405 14.5474 25.8101Z" fill="#EA4335"/>
<path d="M15.749 33.7586L7.38159 43.0684C6.24982 44.3271 6.82256 46.3388 8.44526 46.8057L19.2439 49.9282C20.8859 50.4048 22.4478 48.9673 22.1211 47.2854L19.685 34.8482C19.3246 32.9967 17.0065 32.3546 15.749 33.7586Z" fill="#EA4335"/>
<path d="M24.5377 33.8747L28.6072 45.7273C29.1563 47.327 31.1896 47.7992 32.3841 46.6035L40.3394 38.6404C41.5484 37.4303 41.053 35.3605 39.4256 34.8354L27.4007 30.946C25.6091 30.3626 23.9261 32.0859 24.5377 33.8747Z" fill="#EA4335"/>
<path d="M25.5362 27.4015L38.0151 26.7508C39.7012 26.6605 40.7128 24.8347 39.898 23.351L34.464 13.4838C33.6395 11.9807 31.5188 11.8912 30.5656 13.3149L23.5206 23.8327C22.4707 25.4017 23.6569 27.5012 25.5362 27.4015Z" fill="#EA4335"/>
</g>
<defs>
<clipPath id="clip0_300_1374">
<rect width="41" height="50" fill="white" transform="translate(0.0532227) rotate(0.0607803)"/>
</clipPath>
</defs>
</svg>
