<svg width="30" height="22" viewBox="0 0 30 22" fill="none" xmlns="http://www.w3.org/2000/svg" aria-hidden="true" focusable="false">
	<path d="M27.5114 3.70828L23.4522 1.4466L15 5.89653L6.5478 1.4466L2.48862 3.70828L14.4385 10.0087L15 10.3024L15.5615 10.0087L27.5114 3.70828Z" fill="currentColor"/>
	<path d="M6.74507 20.6489L10.8194 18.3725V14.253L6.74507 11.9693V20.6489Z" fill="currentColor"/>
	<path d="M2.48103 3.63485V3.64336L2.48951 3.63485H2.48103Z" fill="currentColor"/>
	<path d="M1.91958 18.3725L6.00152 20.6489V10.7797L14.6358 15.3251V10.9192L1.91958 4.2223V18.3725Z" fill="currentColor"/>
	<path d="M15.3642 10.9192V15.3251L23.9985 10.7797V20.6489L28.0804 18.3725V4.2223L15.3642 10.9192Z" fill="currentColor"/>
	<path d="M19.173 18.3725L23.2549 20.6489V11.9693L19.173 14.253V18.3725Z" fill="currentColor"/>
</svg>
